<?xml version="1.0" encoding="utf-8" standalone="no"?>
<!DOCTYPE svg PUBLIC "-//W3C//DTD SVG 1.1//EN"
  "http://www.w3.org/Graphics/SVG/1.1/DTD/svg11.dtd">
<svg xmlns:xlink="http://www.w3.org/1999/xlink" width="553.026871pt" height="318.269813pt" viewBox="0 0 553.026871 318.269813" xmlns="http://www.w3.org/2000/svg" version="1.1">
 <metadata>
  <rdf:RDF xmlns:dc="http://purl.org/dc/elements/1.1/" xmlns:cc="http://creativecommons.org/ns#" xmlns:rdf="http://www.w3.org/1999/02/22-rdf-syntax-ns#">
   <cc:Work>
    <dc:type rdf:resource="http://purl.org/dc/dcmitype/StillImage"/>
    <dc:date>2026-06-25T22:49:50.054548</dc:date>
    <dc:format>image/svg+xml</dc:format>
    <dc:creator>
     <cc:Agent>
      <dc:title>Matplotlib v3.11.0, https://matplotlib.org/</dc:title>
     </cc:Agent>
    </dc:creator>
   </cc:Work>
  </rdf:RDF>
 </metadata>
 <defs>
  <style type="text/css">*{stroke-linejoin: round; stroke-linecap: butt}</style>
 </defs>
 <g id="figure_1">
  <g id="patch_1">
   <path d="M 0 318.269813 
L 553.026871 318.269813 
L 553.026871 0 
L 0 0 
z
" style="fill: #0d1117"/>
  </g>
  <g id="axes_1">
   <g id="patch_2">
    <path d="M 68.092238 263.117813 
L 291.431825 263.117813 
L 291.431825 29.837813 
L 68.092238 29.837813 
z
" style="fill: #0d1117"/>
   </g>
   <g id="patch_3">
    <path d="M 68.092238 263.117813 
L 190.170269 263.117813 
L 190.170269 29.837813 
L 68.092238 29.837813 
z
" clip-path="url(#pca24fef795)" style="fill: #e8783c; opacity: 0.08; stroke: #e8783c; stroke-linejoin: miter"/>
   </g>
   <g id="text_1">
    <text style="font-size: 9px; font-family: 'DejaVu Sans'; fill: #8b949e" transform="translate(76.858166 219.785416)">rate-loop regime (T_ncp)</text>
    <text style="font-size: 9px; font-family: 'DejaVu Sans'; fill: #8b949e" transform="translate(76.858166 230.587877)">benefit ≈ single-digit %</text>
   </g>
   <g id="matplotlib.axis_1">
    <g id="xtick_1">
     <g id="line2d_1">
      <defs>
       <path id="m8b66273868" d="M 0 0 
L 0 3.5 
" style="stroke: #c9d1d9; stroke-width: 0.8"/>
      </defs>
      <g>
       <use xlink:href="#m8b66273868" x="96.338434" y="263.117813" style="fill: #c9d1d9; stroke: #c9d1d9; stroke-width: 0.8"/>
      </g>
     </g>
     <g id="text_2">
      <!-- $\mathdefault{10^{-1}}$ -->
      <g style="fill: #c9d1d9" transform="translate(84.588434 279.417812)">
       <text>
        <tspan x="0" y="-0.762187" style="font-size: 10px; font-family: 'DejaVu Sans'; fill: #c9d1d9">1</tspan>
        <tspan x="6.362305" y="-0.762187" style="font-size: 10px; font-family: 'DejaVu Sans'; fill: #c9d1d9">0</tspan>
        <tspan x="12.820312" y="-4.892187" style="font-size: 7px; font-family: 'DejaVu Sans'; fill: #c9d1d9">−</tspan>
        <tspan x="18.685547" y="-4.892187" style="font-size: 7px; font-family: 'DejaVu Sans'; fill: #c9d1d9">1</tspan>
       </text>
      </g>
     </g>
    </g>
    <g id="xtick_2">
     <g id="line2d_2">
      <g>
       <use xlink:href="#m8b66273868" x="190.170269" y="263.117813" style="fill: #c9d1d9; stroke: #c9d1d9; stroke-width: 0.8"/>
      </g>
     </g>
     <g id="text_3">
      <!-- $\mathdefault{10^{0}}$ -->
      <g style="fill: #c9d1d9" transform="translate(181.370269 279.517812)">
       <text>
        <tspan x="0" y="-0.674688" style="font-size: 10px; font-family: 'DejaVu Sans'; fill: #c9d1d9">1</tspan>
        <tspan x="6.362305" y="-0.674688" style="font-size: 10px; font-family: 'DejaVu Sans'; fill: #c9d1d9">0</tspan>
        <tspan x="12.820312" y="-4.804688" style="font-size: 7px; font-family: 'DejaVu Sans'; fill: #c9d1d9">0</tspan>
       </text>
      </g>
     </g>
    </g>
    <g id="xtick_3">
     <g id="line2d_3">
      <g>
       <use xlink:href="#m8b66273868" x="284.002103" y="263.117813" style="fill: #c9d1d9; stroke: #c9d1d9; stroke-width: 0.8"/>
      </g>
     </g>
     <g id="text_4">
      <!-- $\mathdefault{10^{1}}$ -->
      <g style="fill: #c9d1d9" transform="translate(275.202103 279.417812)">
       <text>
        <tspan x="0" y="-0.762187" style="font-size: 10px; font-family: 'DejaVu Sans'; fill: #c9d1d9">1</tspan>
        <tspan x="6.362305" y="-0.762187" style="font-size: 10px; font-family: 'DejaVu Sans'; fill: #c9d1d9">0</tspan>
        <tspan x="12.820312" y="-4.892187" style="font-size: 7px; font-family: 'DejaVu Sans'; fill: #c9d1d9">1</tspan>
       </text>
      </g>
     </g>
    </g>
    <g id="xtick_4">
     <g id="line2d_4">
      <defs>
       <path id="m02084b465e" d="M 0 0 
L 0 2 
" style="stroke: #c9d1d9; stroke-width: 0.6"/>
      </defs>
      <g>
       <use xlink:href="#m02084b465e" x="68.092238" y="263.117813" style="fill: #c9d1d9; stroke: #c9d1d9; stroke-width: 0.6"/>
      </g>
     </g>
    </g>
    <g id="xtick_5">
     <g id="line2d_5">
      <g>
       <use xlink:href="#m02084b465e" x="75.521959" y="263.117813" style="fill: #c9d1d9; stroke: #c9d1d9; stroke-width: 0.6"/>
      </g>
     </g>
    </g>
    <g id="xtick_6">
     <g id="line2d_6">
      <g>
       <use xlink:href="#m02084b465e" x="81.803699" y="263.117813" style="fill: #c9d1d9; stroke: #c9d1d9; stroke-width: 0.6"/>
      </g>
     </g>
    </g>
    <g id="xtick_7">
     <g id="line2d_7">
      <g>
       <use xlink:href="#m02084b465e" x="87.24519" y="263.117813" style="fill: #c9d1d9; stroke: #c9d1d9; stroke-width: 0.6"/>
      </g>
     </g>
    </g>
    <g id="xtick_8">
     <g id="line2d_8">
      <g>
       <use xlink:href="#m02084b465e" x="92.044925" y="263.117813" style="fill: #c9d1d9; stroke: #c9d1d9; stroke-width: 0.6"/>
      </g>
     </g>
    </g>
    <g id="xtick_9">
     <g id="line2d_9">
      <g>
       <use xlink:href="#m02084b465e" x="124.584631" y="263.117813" style="fill: #c9d1d9; stroke: #c9d1d9; stroke-width: 0.6"/>
      </g>
     </g>
    </g>
    <g id="xtick_10">
     <g id="line2d_10">
      <g>
       <use xlink:href="#m02084b465e" x="141.107597" y="263.117813" style="fill: #c9d1d9; stroke: #c9d1d9; stroke-width: 0.6"/>
      </g>
     </g>
    </g>
    <g id="xtick_11">
     <g id="line2d_11">
      <g>
       <use xlink:href="#m02084b465e" x="152.830828" y="263.117813" style="fill: #c9d1d9; stroke: #c9d1d9; stroke-width: 0.6"/>
      </g>
     </g>
    </g>
    <g id="xtick_12">
     <g id="line2d_12">
      <g>
       <use xlink:href="#m02084b465e" x="161.924072" y="263.117813" style="fill: #c9d1d9; stroke: #c9d1d9; stroke-width: 0.6"/>
      </g>
     </g>
    </g>
    <g id="xtick_13">
     <g id="line2d_13">
      <g>
       <use xlink:href="#m02084b465e" x="169.353794" y="263.117813" style="fill: #c9d1d9; stroke: #c9d1d9; stroke-width: 0.6"/>
      </g>
     </g>
    </g>
    <g id="xtick_14">
     <g id="line2d_14">
      <g>
       <use xlink:href="#m02084b465e" x="175.635534" y="263.117813" style="fill: #c9d1d9; stroke: #c9d1d9; stroke-width: 0.6"/>
      </g>
     </g>
    </g>
    <g id="xtick_15">
     <g id="line2d_15">
      <g>
       <use xlink:href="#m02084b465e" x="181.077025" y="263.117813" style="fill: #c9d1d9; stroke: #c9d1d9; stroke-width: 0.6"/>
      </g>
     </g>
    </g>
    <g id="xtick_16">
     <g id="line2d_16">
      <g>
       <use xlink:href="#m02084b465e" x="185.87676" y="263.117813" style="fill: #c9d1d9; stroke: #c9d1d9; stroke-width: 0.6"/>
      </g>
     </g>
    </g>
    <g id="xtick_17">
     <g id="line2d_17">
      <g>
       <use xlink:href="#m02084b465e" x="218.416466" y="263.117813" style="fill: #c9d1d9; stroke: #c9d1d9; stroke-width: 0.6"/>
      </g>
     </g>
    </g>
    <g id="xtick_18">
     <g id="line2d_18">
      <g>
       <use xlink:href="#m02084b465e" x="234.939431" y="263.117813" style="fill: #c9d1d9; stroke: #c9d1d9; stroke-width: 0.6"/>
      </g>
     </g>
    </g>
    <g id="xtick_19">
     <g id="line2d_19">
      <g>
       <use xlink:href="#m02084b465e" x="246.662662" y="263.117813" style="fill: #c9d1d9; stroke: #c9d1d9; stroke-width: 0.6"/>
      </g>
     </g>
    </g>
    <g id="xtick_20">
     <g id="line2d_20">
      <g>
       <use xlink:href="#m02084b465e" x="255.755907" y="263.117813" style="fill: #c9d1d9; stroke: #c9d1d9; stroke-width: 0.6"/>
      </g>
     </g>
    </g>
    <g id="xtick_21">
     <g id="line2d_21">
      <g>
       <use xlink:href="#m02084b465e" x="263.185628" y="263.117813" style="fill: #c9d1d9; stroke: #c9d1d9; stroke-width: 0.6"/>
      </g>
     </g>
    </g>
    <g id="xtick_22">
     <g id="line2d_22">
      <g>
       <use xlink:href="#m02084b465e" x="269.467368" y="263.117813" style="fill: #c9d1d9; stroke: #c9d1d9; stroke-width: 0.6"/>
      </g>
     </g>
    </g>
    <g id="xtick_23">
     <g id="line2d_23">
      <g>
       <use xlink:href="#m02084b465e" x="274.908859" y="263.117813" style="fill: #c9d1d9; stroke: #c9d1d9; stroke-width: 0.6"/>
      </g>
     </g>
    </g>
    <g id="xtick_24">
     <g id="line2d_24">
      <g>
       <use xlink:href="#m02084b465e" x="279.708594" y="263.117813" style="fill: #c9d1d9; stroke: #c9d1d9; stroke-width: 0.6"/>
      </g>
     </g>
    </g>
    <g id="text_5">
     <text style="font-size: 12px; font-family: 'DejaVu Sans'; text-anchor: middle; fill: #c9d1d9" x="179.762031" y="295.038281" transform="rotate(-0 179.762031 295.038281)">transport-work per chunk (ms, log)</text>
    </g>
   </g>
   <g id="matplotlib.axis_2">
    <g id="ytick_1">
     <g id="line2d_25">
      <path d="M 68.092238 263.117813 
L 291.431825 263.117813 
" clip-path="url(#pca24fef795)" style="fill: none; stroke: #30363d; stroke-width: 0.6; stroke-linecap: square"/>
     </g>
     <g id="line2d_26">
      <defs>
       <path id="ma62b434ad5" d="M 0 0 
L -3.5 0 
" style="stroke: #c9d1d9; stroke-width: 0.8"/>
      </defs>
      <g>
       <use xlink:href="#ma62b434ad5" x="68.092238" y="263.117813" style="fill: #c9d1d9; stroke: #c9d1d9; stroke-width: 0.8"/>
      </g>
     </g>
     <g id="text_6">
      <text style="font-size: 10px; font-family: 'DejaVu Sans'; text-anchor: end; fill: #c9d1d9" x="61.092238" y="266.916641" transform="rotate(-0 61.092238 266.916641)">1.0</text>
     </g>
    </g>
    <g id="ytick_2">
     <g id="line2d_27">
      <path d="M 68.092238 214.006234 
L 291.431825 214.006234 
" clip-path="url(#pca24fef795)" style="fill: none; stroke: #30363d; stroke-width: 0.6; stroke-linecap: square"/>
     </g>
     <g id="line2d_28">
      <g>
       <use xlink:href="#ma62b434ad5" x="68.092238" y="214.006234" style="fill: #c9d1d9; stroke: #c9d1d9; stroke-width: 0.8"/>
      </g>
     </g>
     <g id="text_7">
      <text style="font-size: 10px; font-family: 'DejaVu Sans'; text-anchor: end; fill: #c9d1d9" x="61.092238" y="217.805062" transform="rotate(-0 61.092238 217.805062)">1.2</text>
     </g>
    </g>
    <g id="ytick_3">
     <g id="line2d_29">
      <path d="M 68.092238 164.894655 
L 291.431825 164.894655 
" clip-path="url(#pca24fef795)" style="fill: none; stroke: #30363d; stroke-width: 0.6; stroke-linecap: square"/>
     </g>
     <g id="line2d_30">
      <g>
       <use xlink:href="#ma62b434ad5" x="68.092238" y="164.894655" style="fill: #c9d1d9; stroke: #c9d1d9; stroke-width: 0.8"/>
      </g>
     </g>
     <g id="text_8">
      <text style="font-size: 10px; font-family: 'DejaVu Sans'; text-anchor: end; fill: #c9d1d9" x="61.092238" y="168.693483" transform="rotate(-0 61.092238 168.693483)">1.4</text>
     </g>
    </g>
    <g id="ytick_4">
     <g id="line2d_31">
      <path d="M 68.092238 115.783076 
L 291.431825 115.783076 
" clip-path="url(#pca24fef795)" style="fill: none; stroke: #30363d; stroke-width: 0.6; stroke-linecap: square"/>
     </g>
     <g id="line2d_32">
      <g>
       <use xlink:href="#ma62b434ad5" x="68.092238" y="115.783076" style="fill: #c9d1d9; stroke: #c9d1d9; stroke-width: 0.8"/>
      </g>
     </g>
     <g id="text_9">
      <text style="font-size: 10px; font-family: 'DejaVu Sans'; text-anchor: end; fill: #c9d1d9" x="61.092238" y="119.581904" transform="rotate(-0 61.092238 119.581904)">1.6</text>
     </g>
    </g>
    <g id="ytick_5">
     <g id="line2d_33">
      <path d="M 68.092238 66.671497 
L 291.431825 66.671497 
" clip-path="url(#pca24fef795)" style="fill: none; stroke: #30363d; stroke-width: 0.6; stroke-linecap: square"/>
     </g>
     <g id="line2d_34">
      <g>
       <use xlink:href="#ma62b434ad5" x="68.092238" y="66.671497" style="fill: #c9d1d9; stroke: #c9d1d9; stroke-width: 0.8"/>
      </g>
     </g>
     <g id="text_10">
      <text style="font-size: 10px; font-family: 'DejaVu Sans'; text-anchor: end; fill: #c9d1d9" x="61.092238" y="70.470325" transform="rotate(-0 61.092238 70.470325)">1.8</text>
     </g>
    </g>
    <g id="text_11">
     <text style="font-size: 12px; font-family: 'DejaVu Sans'; text-anchor: middle; fill: #c9d1d9" x="38.3063" y="146.477812" transform="rotate(-90 38.3063 146.477812)">overlap speedup (×)</text>
    </g>
   </g>
   <g id="patch_4">
    <path d="M 68.092238 263.117813 
L 68.092238 29.837813 
" style="fill: none; stroke: #8b949e; stroke-linejoin: miter; stroke-linecap: square"/>
   </g>
   <g id="patch_5">
    <path d="M 68.092238 263.117813 
L 291.431825 263.117813 
" style="fill: none; stroke: #8b949e; stroke-linejoin: miter; stroke-linecap: square"/>
   </g>
   <g id="text_12">
    <path d="M 8.48625 7.630937 
L 11.117812 7.630937 
L 11.117812 17.837812 
L 8.48625 17.837812 
L 8.48625 7.630937 
z
M 16.004687 7.630937 
L 17.522812 7.630937 
L 13.92 19.137187 
L 12.408437 19.137187 
L 16.004687 7.630937 
z
M 23.470625 9.354687 
Q 22.2675 9.354687 21.604687 10.242812 
Q 20.941875 11.130937 20.941875 12.745312 
Q 20.941875 14.350937 21.604687 15.24125 
Q 22.2675 16.129375 23.470625 16.129375 
Q 24.680312 16.129375 25.343125 15.24125 
Q 26.005937 14.350937 26.005937 12.745312 
Q 26.005937 11.130937 25.343125 10.242812 
Q 24.680312 9.354687 23.470625 9.354687 
z
M 23.470625 7.447187 
Q 25.931562 7.447187 27.325 8.855937 
Q 28.720625 10.2625 28.720625 12.745312 
Q 28.720625 15.219375 27.325 16.628125 
Q 25.931562 18.036875 23.470625 18.036875 
Q 21.01625 18.036875 19.618437 16.628125 
Q 18.220625 15.219375 18.220625 12.745312 
Q 18.220625 10.2625 19.618437 8.855937 
Q 21.01625 7.447187 23.470625 7.447187 
z
M 39.117812 11.747812 
Q 38.304062 11.747812 37.8775 12.331875 
Q 37.450937 12.915937 37.450937 14.01625 
Q 37.450937 15.116562 37.8775 15.702812 
Q 38.304062 16.286875 39.117812 16.286875 
Q 39.918437 16.286875 40.340625 15.702812 
Q 40.765 15.116562 40.765 14.01625 
Q 40.765 12.915937 40.340625 12.331875 
Q 39.918437 11.747812 39.117812 11.747812 
z
M 39.117812 9.997812 
Q 41.093125 9.997812 42.204375 11.065312 
Q 43.315625 12.130625 43.315625 14.01625 
Q 43.315625 15.904062 42.204375 16.971562 
Q 41.093125 18.036875 39.117812 18.036875 
Q 37.135937 18.036875 36.018125 16.971562 
Q 34.900312 15.904062 34.900312 14.01625 
Q 34.900312 12.130625 36.018125 11.065312 
Q 37.135937 9.997812 39.117812 9.997812 
z
M 44.129375 10.181562 
L 46.577187 10.181562 
L 48.484687 15.473125 
L 50.383437 10.181562 
L 52.837812 10.181562 
L 49.823437 17.837812 
L 47.137187 17.837812 
L 44.129375 10.181562 
z
M 61.86125 13.99 
L 61.86125 14.685625 
L 56.140937 14.685625 
Q 56.228437 15.5475 56.762187 15.978437 
Q 57.295937 16.409375 58.251875 16.409375 
Q 59.024062 16.409375 59.833437 16.179687 
Q 60.645 15.95 61.500312 15.48625 
L 61.500312 17.371875 
Q 60.631875 17.7 59.763437 17.868437 
Q 58.895 18.036875 58.026562 18.036875 
Q 55.948437 18.036875 54.795625 16.980312 
Q 53.645 15.92375 53.645 14.01625 
Q 53.645 12.14375 54.775937 11.071875 
Q 55.906875 9.997812 57.890937 9.997812 
Q 59.695625 9.997812 60.778437 11.085 
Q 61.86125 12.17 61.86125 13.99 
z
M 59.345625 13.17625 
Q 59.345625 12.478437 58.93875 12.051875 
Q 58.531875 11.623125 57.875625 11.623125 
Q 57.164687 11.623125 56.720625 12.023437 
Q 56.276562 12.42375 56.167187 13.17625 
L 59.345625 13.17625 
z
M 69.40375 12.26625 
Q 69.082188 12.115312 68.762812 12.045312 
Q 68.445625 11.973125 68.124062 11.973125 
Q 67.18125 11.973125 66.671562 12.579062 
Q 66.161875 13.182812 66.161875 14.309375 
L 66.161875 17.837812 
L 63.71625 17.837812 
L 63.71625 10.181562 
L 66.161875 10.181562 
L 66.161875 11.439375 
Q 66.634375 10.686875 67.244687 10.343437 
Q 67.857187 9.997812 68.7125 9.997812 
Q 68.835 9.997812 68.977187 10.00875 
Q 69.121562 10.0175 69.395 10.0525 
L 69.40375 12.26625 
z
M 70.62 7.2 
L 73.065625 7.2 
L 73.065625 17.837812 
L 70.62 17.837812 
L 70.62 7.2 
z
M 78.849375 14.3925 
Q 78.08375 14.3925 77.696562 14.652812 
Q 77.311562 14.910937 77.311562 15.418437 
Q 77.311562 15.882187 77.622187 16.146875 
Q 77.935 16.409375 78.488437 16.409375 
Q 79.1775 16.409375 79.65 15.915 
Q 80.1225 15.418437 80.1225 14.6725 
L 80.1225 14.3925 
L 78.849375 14.3925 
z
M 82.59 13.469375 
L 82.59 17.837812 
L 80.1225 17.837812 
L 80.1225 16.7025 
Q 79.630313 17.400312 79.013437 17.719687 
Q 78.39875 18.036875 77.517187 18.036875 
Q 76.327187 18.036875 75.585625 17.343437 
Q 74.844062 16.647812 74.844062 15.540937 
Q 74.844062 14.193437 75.769375 13.565625 
Q 76.696875 12.935625 78.67875 12.935625 
L 80.1225 12.935625 
L 80.1225 12.745312 
Q 80.1225 12.163437 79.663125 11.894375 
Q 79.205937 11.623125 78.234687 11.623125 
Q 77.449375 11.623125 76.77125 11.780625 
Q 76.095312 11.938125 75.513437 12.253125 
L 75.513437 10.387187 
Q 76.300937 10.194687 77.092812 10.09625 
Q 77.886875 9.997812 78.67875 9.997812 
Q 80.750312 9.997812 81.669062 10.81375 
Q 82.59 11.629687 82.59 13.469375 
z
M 87.312812 16.730937 
L 87.312812 20.749375 
L 84.867188 20.749375 
L 84.867188 10.181562 
L 87.312812 10.181562 
L 87.312812 11.301562 
Q 87.820312 10.632187 88.435 10.315 
Q 89.049687 9.997812 89.850313 9.997812 
Q 91.265625 9.997812 92.173437 11.122187 
Q 93.083438 12.246562 93.083438 14.01625 
Q 93.083438 15.785937 92.173437 16.9125 
Q 91.265625 18.036875 89.850313 18.036875 
Q 89.049687 18.036875 88.435 17.719687 
Q 87.820312 17.400312 87.312812 16.730937 
z
M 88.940312 11.774062 
Q 88.155 11.774062 87.732812 12.351562 
Q 87.312812 12.929062 87.312812 14.01625 
Q 87.312812 15.103437 87.732812 15.680937 
Q 88.155 16.258437 88.940312 16.258437 
Q 89.725625 16.258437 90.139062 15.685312 
Q 90.554688 15.11 90.554688 14.01625 
Q 90.554688 12.9225 90.139062 12.349375 
Q 89.725625 11.774062 88.940312 11.774062 
z
M 95.2775 10.181562 
L 97.745 10.181562 
L 97.745 12.82625 
L 95.2775 12.82625 
L 95.2775 10.181562 
z
M 95.2775 15.193125 
L 97.745 15.193125 
L 97.745 17.837812 
L 95.2775 17.837812 
L 95.2775 15.193125 
z
M 111.340312 10.42 
L 111.340312 12.279375 
Q 110.555 11.95125 109.822187 11.787187 
Q 109.091562 11.623125 108.441875 11.623125 
Q 107.744062 11.623125 107.405 11.798125 
Q 107.068125 11.973125 107.068125 12.334062 
Q 107.068125 12.629375 107.324062 12.786875 
Q 107.58 12.942187 108.242812 13.01875 
L 108.67375 13.08 
Q 110.555 13.318437 111.2025 13.865312 
Q 111.852187 14.412187 111.852187 15.5825 
Q 111.852187 16.805312 110.94875 17.422187 
Q 110.0475 18.036875 108.258125 18.036875 
Q 107.499062 18.036875 106.6875 17.916562 
Q 105.878125 17.79625 105.022813 17.557812 
L 105.022813 15.698437 
Q 105.755625 16.052812 106.523438 16.232187 
Q 107.293437 16.409375 108.085313 16.409375 
Q 108.805 16.409375 109.165937 16.2125 
Q 109.529062 16.013437 109.529062 15.621875 
Q 109.529062 15.29375 109.279687 15.134062 
Q 109.030312 14.974375 108.284375 14.884687 
L 107.853437 14.83 
Q 106.219375 14.624375 105.563125 14.070937 
Q 104.906875 13.5175 104.906875 12.38875 
Q 104.906875 11.1725 105.740313 10.58625 
Q 106.575937 9.997812 108.2975 9.997812 
Q 108.975625 9.997812 109.719375 10.100625 
Q 110.465312 10.20125 111.340312 10.42 
z
M 113.60875 14.85625 
L 113.60875 10.181562 
L 116.069688 10.181562 
L 116.069688 10.947187 
Q 116.069688 11.568437 116.063125 12.509062 
Q 116.056562 13.449687 116.056562 13.7625 
Q 116.056562 14.685625 116.104687 15.0925 
Q 116.152812 15.499375 116.26875 15.685312 
Q 116.4175 15.92375 116.660313 16.055 
Q 116.903125 16.184062 117.218125 16.184062 
Q 117.98375 16.184062 118.42125 15.595625 
Q 118.85875 15.007187 118.85875 13.961562 
L 118.85875 10.181562 
L 121.306562 10.181562 
L 121.306562 17.837812 
L 118.85875 17.837812 
L 118.85875 16.730937 
Q 118.305312 17.400312 117.68625 17.719687 
Q 117.067188 18.036875 116.323437 18.036875 
Q 114.995625 18.036875 114.302188 17.223125 
Q 113.60875 16.409375 113.60875 14.85625 
z
M 127.73125 16.258437 
Q 128.516563 16.258437 128.93 15.685312 
Q 129.345625 15.11 129.345625 14.01625 
Q 129.345625 12.9225 128.93 12.349375 
Q 128.516563 11.774062 127.73125 11.774062 
Q 126.945937 11.774062 126.52375 12.351562 
Q 126.10375 12.929062 126.10375 14.01625 
Q 126.10375 15.103437 126.52375 15.680937 
Q 126.945937 16.258437 127.73125 16.258437 
z
M 126.10375 11.301562 
Q 126.61125 10.632187 127.225938 10.315 
Q 127.840625 9.997812 128.64125 9.997812 
Q 130.056562 9.997812 130.964375 11.122187 
Q 131.874375 12.246562 131.874375 14.01625 
Q 131.874375 15.785937 130.964375 16.9125 
Q 130.056562 18.036875 128.64125 18.036875 
Q 127.840625 18.036875 127.225938 17.719687 
Q 126.61125 17.400312 126.10375 16.730937 
L 126.10375 17.837812 
L 123.658125 17.837812 
L 123.658125 7.2 
L 126.10375 7.2 
L 126.10375 11.301562 
z
M 133.26125 12.813125 
L 137.553125 12.813125 
L 137.553125 14.801562 
L 133.26125 14.801562 
L 133.26125 12.813125 
z
M 146.583125 11.4525 
Q 147.049062 10.741562 147.687813 10.369687 
Q 148.326562 9.997812 149.092187 9.997812 
Q 150.41125 9.997812 151.1025 10.811562 
Q 151.79375 11.623125 151.79375 13.17625 
L 151.79375 17.837812 
L 149.332812 17.837812 
L 149.332812 13.845625 
Q 149.339375 13.755937 149.341563 13.661875 
Q 149.345937 13.565625 149.345937 13.388437 
Q 149.345937 12.574687 149.105312 12.209375 
Q 148.866875 11.841875 148.333125 11.841875 
Q 147.6375 11.841875 147.256875 12.417187 
Q 146.878437 12.990312 146.863125 14.0775 
L 146.863125 17.837812 
L 144.402187 17.837812 
L 144.402187 13.845625 
Q 144.402187 12.574687 144.183437 12.209375 
Q 143.964687 11.841875 143.404687 11.841875 
Q 142.700312 11.841875 142.3175 12.419375 
Q 141.934687 12.996875 141.934687 14.070937 
L 141.934687 17.837812 
L 139.47375 17.837812 
L 139.47375 10.181562 
L 141.934687 10.181562 
L 141.934687 11.301562 
Q 142.3875 10.654062 142.971563 10.325937 
Q 143.555625 9.997812 144.26 9.997812 
Q 145.051875 9.997812 145.66 10.380625 
Q 146.270312 10.763437 146.583125 11.4525 
z
M 160.058125 10.42 
L 160.058125 12.279375 
Q 159.272813 11.95125 158.54 11.787187 
Q 157.809375 11.623125 157.159687 11.623125 
Q 156.461875 11.623125 156.122813 11.798125 
Q 155.785937 11.973125 155.785937 12.334062 
Q 155.785937 12.629375 156.041875 12.786875 
Q 156.297812 12.942187 156.960625 13.01875 
L 157.391562 13.08 
Q 159.272813 13.318437 159.920312 13.865312 
Q 160.57 14.412187 160.57 15.5825 
Q 160.57 16.805312 159.666562 17.422187 
Q 158.765312 18.036875 156.975938 18.036875 
Q 156.216875 18.036875 155.405313 17.916562 
Q 154.595937 17.79625 153.740625 17.557812 
L 153.740625 15.698437 
Q 154.473437 16.052812 155.24125 16.232187 
Q 156.01125 16.409375 156.803125 16.409375 
Q 157.522813 16.409375 157.88375 16.2125 
Q 158.246875 16.013437 158.246875 15.621875 
Q 158.246875 15.29375 157.9975 15.134062 
Q 157.748125 14.974375 157.002187 14.884687 
L 156.57125 14.83 
Q 154.937187 14.624375 154.280937 14.070937 
Q 153.624687 13.5175 153.624687 12.38875 
Q 153.624687 11.1725 154.458125 10.58625 
Q 155.29375 9.997812 157.015312 9.997812 
Q 157.693438 9.997812 158.437187 10.100625 
Q 159.183125 10.20125 160.058125 10.42 
z
M 167.283437 7.2 
L 169.729062 7.2 
L 169.729062 17.837812 
L 167.283437 17.837812 
L 167.283437 7.2 
z
M 175.725 11.747812 
Q 174.91125 11.747812 174.484688 12.331875 
Q 174.058125 12.915937 174.058125 14.01625 
Q 174.058125 15.116562 174.484688 15.702812 
Q 174.91125 16.286875 175.725 16.286875 
Q 176.525625 16.286875 176.947812 15.702812 
Q 177.372187 15.116562 177.372187 14.01625 
Q 177.372187 12.915937 176.947812 12.331875 
Q 176.525625 11.747812 175.725 11.747812 
z
M 175.725 9.997812 
Q 177.700312 9.997812 178.811563 11.065312 
Q 179.922812 12.130625 179.922812 14.01625 
Q 179.922812 15.904062 178.811563 16.971562 
Q 177.700312 18.036875 175.725 18.036875 
Q 173.743125 18.036875 172.625313 16.971562 
Q 171.5075 15.904062 171.5075 14.01625 
Q 171.5075 12.130625 172.625313 11.065312 
Q 173.743125 9.997812 175.725 9.997812 
z
M 185.343437 11.747812 
Q 184.529687 11.747812 184.103125 12.331875 
Q 183.676563 12.915937 183.676563 14.01625 
Q 183.676563 15.116562 184.103125 15.702812 
Q 184.529687 16.286875 185.343437 16.286875 
Q 186.144063 16.286875 186.56625 15.702812 
Q 186.990625 15.116562 186.990625 14.01625 
Q 186.990625 12.915937 186.56625 12.331875 
Q 186.144063 11.747812 185.343437 11.747812 
z
M 185.343437 9.997812 
Q 187.31875 9.997812 188.43 11.065312 
Q 189.54125 12.130625 189.54125 14.01625 
Q 189.54125 15.904062 188.43 16.971562 
Q 187.31875 18.036875 185.343437 18.036875 
Q 183.361563 18.036875 182.24375 16.971562 
Q 181.125937 15.904062 181.125937 14.01625 
Q 181.125937 12.130625 182.24375 11.065312 
Q 183.361563 9.997812 185.343437 9.997812 
z
M 193.765312 16.730937 
L 193.765312 20.749375 
L 191.319688 20.749375 
L 191.319688 10.181562 
L 193.765312 10.181562 
L 193.765312 11.301562 
Q 194.272813 10.632187 194.8875 10.315 
Q 195.502188 9.997812 196.302813 9.997812 
Q 197.718125 9.997812 198.625938 11.122187 
Q 199.535938 12.246562 199.535938 14.01625 
Q 199.535938 15.785937 198.625938 16.9125 
Q 197.718125 18.036875 196.302813 18.036875 
Q 195.502188 18.036875 194.8875 17.719687 
Q 194.272813 17.400312 193.765312 16.730937 
z
M 195.392813 11.774062 
Q 194.6075 11.774062 194.185313 12.351562 
Q 193.765312 12.929062 193.765312 14.01625 
Q 193.765312 15.103437 194.185313 15.680937 
Q 194.6075 16.258437 195.392813 16.258437 
Q 196.178125 16.258437 196.591563 15.685312 
Q 197.007188 15.11 197.007188 14.01625 
Q 197.007188 12.9225 196.591563 12.349375 
Q 196.178125 11.774062 195.392813 11.774062 
z
M 201.592187 15.193125 
L 204.053125 15.193125 
L 204.053125 17.277812 
L 202.364375 19.82625 
L 200.909688 19.82625 
L 201.592187 17.277812 
L 201.592187 15.193125 
z
M 217.512812 10.42 
L 217.512812 12.279375 
Q 216.7275 11.95125 215.994687 11.787187 
Q 215.264062 11.623125 214.614375 11.623125 
Q 213.916562 11.623125 213.5775 11.798125 
Q 213.240625 11.973125 213.240625 12.334062 
Q 213.240625 12.629375 213.496563 12.786875 
Q 213.7525 12.942187 214.415312 13.01875 
L 214.84625 13.08 
Q 216.7275 13.318437 217.375 13.865312 
Q 218.024687 14.412187 218.024687 15.5825 
Q 218.024687 16.805312 217.12125 17.422187 
Q 216.22 18.036875 214.430625 18.036875 
Q 213.671563 18.036875 212.86 17.916562 
Q 212.050625 17.79625 211.195312 17.557812 
L 211.195312 15.698437 
Q 211.928125 16.052812 212.695938 16.232187 
Q 213.465937 16.409375 214.257812 16.409375 
Q 214.9775 16.409375 215.338437 16.2125 
Q 215.701562 16.013437 215.701562 15.621875 
Q 215.701562 15.29375 215.452188 15.134062 
Q 215.202813 14.974375 214.456875 14.884687 
L 214.025937 14.83 
Q 212.391875 14.624375 211.735625 14.070937 
Q 211.079375 13.5175 211.079375 12.38875 
Q 211.079375 11.1725 211.912813 10.58625 
Q 212.748437 9.997812 214.47 9.997812 
Q 215.148125 9.997812 215.891875 10.100625 
Q 216.637812 10.20125 217.512812 10.42 
z
M 219.864375 10.181562 
L 222.31 10.181562 
L 222.31 17.837812 
L 219.864375 17.837812 
L 219.864375 10.181562 
z
M 219.864375 7.2 
L 222.31 7.2 
L 222.31 9.197187 
L 219.864375 9.197187 
L 219.864375 7.2 
z
M 232.359375 13.17625 
L 232.359375 17.837812 
L 229.898438 17.837812 
L 229.898438 17.07875 
L 229.898438 14.27 
Q 229.898438 13.279062 229.854688 12.902812 
Q 229.810938 12.526562 229.701563 12.349375 
Q 229.557187 12.10875 229.31 11.975312 
Q 229.065 11.841875 228.75 11.841875 
Q 227.984375 11.841875 227.546875 12.434687 
Q 227.109375 13.025312 227.109375 14.070937 
L 227.109375 17.837812 
L 224.66375 17.837812 
L 224.66375 10.181562 
L 227.109375 10.181562 
L 227.109375 11.301562 
Q 227.662813 10.632187 228.284063 10.315 
Q 228.9075 9.997812 229.66 9.997812 
Q 230.985625 9.997812 231.6725 10.811562 
Q 232.359375 11.623125 232.359375 13.17625 
z
M 239.838437 16.538437 
Q 239.333125 17.207812 238.722813 17.522812 
Q 238.114688 17.837812 237.31625 17.837812 
Q 235.914062 17.837812 234.9975 16.735312 
Q 234.083125 15.630625 234.083125 13.92 
Q 234.083125 12.205 234.9975 11.109062 
Q 235.914062 10.010937 237.31625 10.010937 
Q 238.114688 10.010937 238.722813 10.325937 
Q 239.333125 10.63875 239.838437 11.316875 
L 239.838437 10.181562 
L 242.299375 10.181562 
L 242.299375 17.065625 
Q 242.299375 18.911875 241.133438 19.885312 
Q 239.9675 20.85875 237.75375 20.85875 
Q 237.03625 20.85875 236.364688 20.749375 
Q 235.695312 20.64 235.019375 20.414687 
L 235.019375 18.507187 
Q 235.660313 18.876875 236.275 19.058437 
Q 236.891875 19.24 237.513125 19.24 
Q 238.71625 19.24 239.27625 18.712812 
Q 239.838437 18.185625 239.838437 17.065625 
L 239.838437 16.538437 
z
M 238.224063 11.774062 
Q 237.465 11.774062 237.040625 12.33625 
Q 236.618437 12.89625 236.618437 13.92 
Q 236.618437 14.974375 237.0275 15.516875 
Q 237.43875 16.059375 238.224063 16.059375 
Q 238.989688 16.059375 239.414062 15.499375 
Q 239.838437 14.939375 239.838437 13.92 
Q 239.838437 12.89625 239.414062 12.33625 
Q 238.989688 11.774062 238.224063 11.774062 
z
M 244.650937 7.2 
L 247.096563 7.2 
L 247.096563 17.837812 
L 244.650937 17.837812 
L 244.650937 7.2 
z
M 257.09125 13.99 
L 257.09125 14.685625 
L 251.370938 14.685625 
Q 251.458438 15.5475 251.992188 15.978437 
Q 252.525938 16.409375 253.481875 16.409375 
Q 254.254063 16.409375 255.063438 16.179687 
Q 255.875 15.95 256.730313 15.48625 
L 256.730313 17.371875 
Q 255.861875 17.7 254.993437 17.868437 
Q 254.125 18.036875 253.256563 18.036875 
Q 251.178438 18.036875 250.025625 16.980312 
Q 248.875 15.92375 248.875 14.01625 
Q 248.875 12.14375 250.005938 11.071875 
Q 251.136875 9.997812 253.120938 9.997812 
Q 254.925625 9.997812 256.008438 11.085 
Q 257.09125 12.17 257.09125 13.99 
z
M 254.575625 13.17625 
Q 254.575625 12.478437 254.16875 12.051875 
Q 253.761875 11.623125 253.105625 11.623125 
Q 252.394688 11.623125 251.950625 12.023437 
Q 251.506563 12.42375 251.397188 13.17625 
L 254.575625 13.17625 
z
M 258.528437 12.813125 
L 262.820312 12.813125 
L 262.820312 14.801562 
L 258.528437 14.801562 
L 258.528437 12.813125 
z
M 269.964688 11.301562 
L 269.964688 7.2 
L 272.425625 7.2 
L 272.425625 17.837812 
L 269.964688 17.837812 
L 269.964688 16.730937 
Q 269.459375 17.406875 268.849063 17.721875 
Q 268.240938 18.036875 267.4425 18.036875 
Q 266.027188 18.036875 265.117188 16.9125 
Q 264.209375 15.785937 264.209375 14.01625 
Q 264.209375 12.246562 265.117188 11.122187 
Q 266.027188 9.997812 267.4425 9.997812 
Q 268.234375 9.997812 268.846875 10.315 
Q 269.459375 10.632187 269.964688 11.301562 
z
M 268.350313 16.258437 
Q 269.137812 16.258437 269.55125 15.685312 
Q 269.964688 15.11 269.964688 14.01625 
Q 269.964688 12.9225 269.55125 12.349375 
Q 269.137812 11.774062 268.350313 11.774062 
Q 267.571563 11.774062 267.158125 12.349375 
Q 266.744687 12.9225 266.744687 14.01625 
Q 266.744687 15.11 267.158125 15.685312 
Q 267.571563 16.258437 268.350313 16.258437 
z
M 274.777188 10.181562 
L 277.222813 10.181562 
L 277.222813 17.837812 
L 274.777188 17.837812 
L 274.777188 10.181562 
z
M 274.777188 7.2 
L 277.222813 7.2 
L 277.222813 9.197187 
L 274.777188 9.197187 
L 274.777188 7.2 
z
M 284.785 16.538437 
Q 284.279688 17.207812 283.669375 17.522812 
Q 283.06125 17.837812 282.262812 17.837812 
Q 280.860625 17.837812 279.944063 16.735312 
Q 279.029688 15.630625 279.029688 13.92 
Q 279.029688 12.205 279.944063 11.109062 
Q 280.860625 10.010937 282.262812 10.010937 
Q 283.06125 10.010937 283.669375 10.325937 
Q 284.279688 10.63875 284.785 11.316875 
L 284.785 10.181562 
L 287.245938 10.181562 
L 287.245938 17.065625 
Q 287.245938 18.911875 286.08 19.885312 
Q 284.914062 20.85875 282.700312 20.85875 
Q 281.982813 20.85875 281.31125 20.749375 
Q 280.641875 20.64 279.965937 20.414687 
L 279.965937 18.507187 
Q 280.606875 18.876875 281.221563 19.058437 
Q 281.838437 19.24 282.459688 19.24 
Q 283.662813 19.24 284.222813 18.712812 
Q 284.785 18.185625 284.785 17.065625 
L 284.785 16.538437 
z
M 283.170625 11.774062 
Q 282.411563 11.774062 281.987188 12.33625 
Q 281.565 12.89625 281.565 13.92 
Q 281.565 14.974375 281.974063 15.516875 
Q 282.385312 16.059375 283.170625 16.059375 
Q 283.93625 16.059375 284.360625 15.499375 
Q 284.785 14.939375 284.785 13.92 
Q 284.785 12.89625 284.360625 12.33625 
Q 283.93625 11.774062 283.170625 11.774062 
z
M 289.5975 10.181562 
L 292.043125 10.181562 
L 292.043125 17.837812 
L 289.5975 17.837812 
L 289.5975 10.181562 
z
M 289.5975 7.2 
L 292.043125 7.2 
L 292.043125 9.197187 
L 289.5975 9.197187 
L 289.5975 7.2 
z
M 297.067813 8.007187 
L 297.067813 10.181562 
L 299.592188 10.181562 
L 299.592188 11.931562 
L 297.067813 11.931562 
L 297.067813 15.177812 
Q 297.067813 15.711562 297.28 15.899687 
Q 297.492188 16.087812 298.122187 16.087812 
L 299.38 16.087812 
L 299.38 17.837812 
L 297.28 17.837812 
Q 295.831875 17.837812 295.225938 17.234062 
Q 294.622187 16.628125 294.622187 15.177812 
L 294.622187 11.931562 
L 293.40375 11.931562 
L 293.40375 10.181562 
L 294.622187 10.181562 
L 294.622187 8.007187 
L 297.067813 8.007187 
z
M 300.670625 12.813125 
L 304.9625 12.813125 
L 304.9625 14.801562 
L 300.670625 14.801562 
L 300.670625 12.813125 
z
M 316.569375 13.626875 
Q 316.085938 13.626875 315.819063 14.046875 
Q 315.552188 14.466875 315.552188 15.247812 
Q 315.552188 16.033125 315.814687 16.453125 
Q 316.077188 16.873125 316.569375 16.873125 
Q 317.061563 16.873125 317.321875 16.453125 
Q 317.582188 16.033125 317.582188 15.247812 
Q 317.582188 14.466875 317.3175 14.046875 
Q 317.055 13.626875 316.569375 13.626875 
z
M 316.569375 12.478437 
Q 317.8425 12.478437 318.573125 13.217812 
Q 319.30375 13.955 319.30375 15.247812 
Q 319.30375 16.538437 318.573125 17.28875 
Q 317.8425 18.036875 316.569375 18.036875 
Q 315.298438 18.036875 314.563438 17.28875 
Q 313.828438 16.538437 313.828438 15.247812 
Q 313.828438 13.961562 314.563438 13.22 
Q 315.298438 12.478437 316.569375 12.478437 
z
M 310.302188 18.036875 
L 308.790625 18.036875 
L 315.169375 7.447187 
L 316.6875 7.447187 
L 310.302188 18.036875 
z
M 308.9 7.447187 
Q 310.170938 7.447187 310.899375 8.18875 
Q 311.627813 8.930312 311.627813 10.223125 
Q 311.627813 11.51375 310.899375 12.259687 
Q 310.170938 13.005625 308.9 13.005625 
Q 307.629063 13.005625 306.900625 12.259687 
Q 306.172188 11.51375 306.172188 10.223125 
Q 306.172188 8.930312 306.900625 8.18875 
Q 307.629063 7.447187 308.9 7.447187 
z
M 308.9 8.595625 
Q 308.407813 8.595625 308.140938 9.02 
Q 307.874063 9.442187 307.874063 10.223125 
Q 307.874063 11.008437 308.140938 11.437187 
Q 308.407813 11.86375 308.9 11.86375 
Q 309.392188 11.86375 309.654688 11.437187 
Q 309.919375 11.008437 309.919375 10.223125 
Q 309.919375 9.442187 309.6525 9.02 
Q 309.385625 8.595625 308.9 8.595625 
z
M 325.115938 10.181562 
L 327.495938 10.181562 
L 328.78 15.457812 
L 330.072812 10.181562 
L 332.115938 10.181562 
L 333.402188 15.403125 
L 334.692813 10.181562 
L 337.072812 10.181562 
L 335.055938 17.837812 
L 332.382812 17.837812 
L 331.09 12.574687 
L 329.805938 17.837812 
L 327.132812 17.837812 
L 325.115938 10.181562 
z
M 338.735313 10.181562 
L 341.180938 10.181562 
L 341.180938 17.837812 
L 338.735313 17.837812 
L 338.735313 10.181562 
z
M 338.735313 7.2 
L 341.180938 7.2 
L 341.180938 9.197187 
L 338.735313 9.197187 
L 338.735313 7.2 
z
M 351.230313 13.17625 
L 351.230313 17.837812 
L 348.769375 17.837812 
L 348.769375 17.07875 
L 348.769375 14.27 
Q 348.769375 13.279062 348.725625 12.902812 
Q 348.681875 12.526562 348.5725 12.349375 
Q 348.428125 12.10875 348.180938 11.975312 
Q 347.935938 11.841875 347.620938 11.841875 
Q 346.855313 11.841875 346.417813 12.434687 
Q 345.980313 13.025312 345.980313 14.070937 
L 345.980313 17.837812 
L 343.534688 17.837812 
L 343.534688 10.181562 
L 345.980313 10.181562 
L 345.980313 11.301562 
Q 346.53375 10.632187 347.155 10.315 
Q 347.778437 9.997812 348.530937 9.997812 
Q 349.856562 9.997812 350.543438 10.811562 
Q 351.230313 11.623125 351.230313 13.17625 
z
" style="fill: #c9d1d9; stroke: #0d1117; stroke-width: 2.5"/>
    <path d="M 8.48625 7.630937 
L 11.117812 7.630937 
L 11.117812 17.837812 
L 8.48625 17.837812 
L 8.48625 7.630937 
z
M 16.004687 7.630937 
L 17.522812 7.630937 
L 13.92 19.137187 
L 12.408437 19.137187 
L 16.004687 7.630937 
z
M 23.470625 9.354687 
Q 22.2675 9.354687 21.604687 10.242812 
Q 20.941875 11.130937 20.941875 12.745312 
Q 20.941875 14.350937 21.604687 15.24125 
Q 22.2675 16.129375 23.470625 16.129375 
Q 24.680312 16.129375 25.343125 15.24125 
Q 26.005937 14.350937 26.005937 12.745312 
Q 26.005937 11.130937 25.343125 10.242812 
Q 24.680312 9.354687 23.470625 9.354687 
z
M 23.470625 7.447187 
Q 25.931562 7.447187 27.325 8.855937 
Q 28.720625 10.2625 28.720625 12.745312 
Q 28.720625 15.219375 27.325 16.628125 
Q 25.931562 18.036875 23.470625 18.036875 
Q 21.01625 18.036875 19.618437 16.628125 
Q 18.220625 15.219375 18.220625 12.745312 
Q 18.220625 10.2625 19.618437 8.855937 
Q 21.01625 7.447187 23.470625 7.447187 
z
M 39.117812 11.747812 
Q 38.304062 11.747812 37.8775 12.331875 
Q 37.450937 12.915937 37.450937 14.01625 
Q 37.450937 15.116562 37.8775 15.702812 
Q 38.304062 16.286875 39.117812 16.286875 
Q 39.918437 16.286875 40.340625 15.702812 
Q 40.765 15.116562 40.765 14.01625 
Q 40.765 12.915937 40.340625 12.331875 
Q 39.918437 11.747812 39.117812 11.747812 
z
M 39.117812 9.997812 
Q 41.093125 9.997812 42.204375 11.065312 
Q 43.315625 12.130625 43.315625 14.01625 
Q 43.315625 15.904062 42.204375 16.971562 
Q 41.093125 18.036875 39.117812 18.036875 
Q 37.135937 18.036875 36.018125 16.971562 
Q 34.900312 15.904062 34.900312 14.01625 
Q 34.900312 12.130625 36.018125 11.065312 
Q 37.135937 9.997812 39.117812 9.997812 
z
M 44.129375 10.181562 
L 46.577187 10.181562 
L 48.484687 15.473125 
L 50.383437 10.181562 
L 52.837812 10.181562 
L 49.823437 17.837812 
L 47.137187 17.837812 
L 44.129375 10.181562 
z
M 61.86125 13.99 
L 61.86125 14.685625 
L 56.140937 14.685625 
Q 56.228437 15.5475 56.762187 15.978437 
Q 57.295937 16.409375 58.251875 16.409375 
Q 59.024062 16.409375 59.833437 16.179687 
Q 60.645 15.95 61.500312 15.48625 
L 61.500312 17.371875 
Q 60.631875 17.7 59.763437 17.868437 
Q 58.895 18.036875 58.026562 18.036875 
Q 55.948437 18.036875 54.795625 16.980312 
Q 53.645 15.92375 53.645 14.01625 
Q 53.645 12.14375 54.775937 11.071875 
Q 55.906875 9.997812 57.890937 9.997812 
Q 59.695625 9.997812 60.778437 11.085 
Q 61.86125 12.17 61.86125 13.99 
z
M 59.345625 13.17625 
Q 59.345625 12.478437 58.93875 12.051875 
Q 58.531875 11.623125 57.875625 11.623125 
Q 57.164687 11.623125 56.720625 12.023437 
Q 56.276562 12.42375 56.167187 13.17625 
L 59.345625 13.17625 
z
M 69.40375 12.26625 
Q 69.082188 12.115312 68.762812 12.045312 
Q 68.445625 11.973125 68.124062 11.973125 
Q 67.18125 11.973125 66.671562 12.579062 
Q 66.161875 13.182812 66.161875 14.309375 
L 66.161875 17.837812 
L 63.71625 17.837812 
L 63.71625 10.181562 
L 66.161875 10.181562 
L 66.161875 11.439375 
Q 66.634375 10.686875 67.244687 10.343437 
Q 67.857187 9.997812 68.7125 9.997812 
Q 68.835 9.997812 68.977187 10.00875 
Q 69.121562 10.0175 69.395 10.0525 
L 69.40375 12.26625 
z
M 70.62 7.2 
L 73.065625 7.2 
L 73.065625 17.837812 
L 70.62 17.837812 
L 70.62 7.2 
z
M 78.849375 14.3925 
Q 78.08375 14.3925 77.696562 14.652812 
Q 77.311562 14.910937 77.311562 15.418437 
Q 77.311562 15.882187 77.622187 16.146875 
Q 77.935 16.409375 78.488437 16.409375 
Q 79.1775 16.409375 79.65 15.915 
Q 80.1225 15.418437 80.1225 14.6725 
L 80.1225 14.3925 
L 78.849375 14.3925 
z
M 82.59 13.469375 
L 82.59 17.837812 
L 80.1225 17.837812 
L 80.1225 16.7025 
Q 79.630313 17.400312 79.013437 17.719687 
Q 78.39875 18.036875 77.517187 18.036875 
Q 76.327187 18.036875 75.585625 17.343437 
Q 74.844062 16.647812 74.844062 15.540937 
Q 74.844062 14.193437 75.769375 13.565625 
Q 76.696875 12.935625 78.67875 12.935625 
L 80.1225 12.935625 
L 80.1225 12.745312 
Q 80.1225 12.163437 79.663125 11.894375 
Q 79.205937 11.623125 78.234687 11.623125 
Q 77.449375 11.623125 76.77125 11.780625 
Q 76.095312 11.938125 75.513437 12.253125 
L 75.513437 10.387187 
Q 76.300937 10.194687 77.092812 10.09625 
Q 77.886875 9.997812 78.67875 9.997812 
Q 80.750312 9.997812 81.669062 10.81375 
Q 82.59 11.629687 82.59 13.469375 
z
M 87.312812 16.730937 
L 87.312812 20.749375 
L 84.867188 20.749375 
L 84.867188 10.181562 
L 87.312812 10.181562 
L 87.312812 11.301562 
Q 87.820312 10.632187 88.435 10.315 
Q 89.049687 9.997812 89.850313 9.997812 
Q 91.265625 9.997812 92.173437 11.122187 
Q 93.083438 12.246562 93.083438 14.01625 
Q 93.083438 15.785937 92.173437 16.9125 
Q 91.265625 18.036875 89.850313 18.036875 
Q 89.049687 18.036875 88.435 17.719687 
Q 87.820312 17.400312 87.312812 16.730937 
z
M 88.940312 11.774062 
Q 88.155 11.774062 87.732812 12.351562 
Q 87.312812 12.929062 87.312812 14.01625 
Q 87.312812 15.103437 87.732812 15.680937 
Q 88.155 16.258437 88.940312 16.258437 
Q 89.725625 16.258437 90.139062 15.685312 
Q 90.554688 15.11 90.554688 14.01625 
Q 90.554688 12.9225 90.139062 12.349375 
Q 89.725625 11.774062 88.940312 11.774062 
z
M 95.2775 10.181562 
L 97.745 10.181562 
L 97.745 12.82625 
L 95.2775 12.82625 
L 95.2775 10.181562 
z
M 95.2775 15.193125 
L 97.745 15.193125 
L 97.745 17.837812 
L 95.2775 17.837812 
L 95.2775 15.193125 
z
M 111.340312 10.42 
L 111.340312 12.279375 
Q 110.555 11.95125 109.822187 11.787187 
Q 109.091562 11.623125 108.441875 11.623125 
Q 107.744062 11.623125 107.405 11.798125 
Q 107.068125 11.973125 107.068125 12.334062 
Q 107.068125 12.629375 107.324062 12.786875 
Q 107.58 12.942187 108.242812 13.01875 
L 108.67375 13.08 
Q 110.555 13.318437 111.2025 13.865312 
Q 111.852187 14.412187 111.852187 15.5825 
Q 111.852187 16.805312 110.94875 17.422187 
Q 110.0475 18.036875 108.258125 18.036875 
Q 107.499062 18.036875 106.6875 17.916562 
Q 105.878125 17.79625 105.022813 17.557812 
L 105.022813 15.698437 
Q 105.755625 16.052812 106.523438 16.232187 
Q 107.293437 16.409375 108.085313 16.409375 
Q 108.805 16.409375 109.165937 16.2125 
Q 109.529062 16.013437 109.529062 15.621875 
Q 109.529062 15.29375 109.279687 15.134062 
Q 109.030312 14.974375 108.284375 14.884687 
L 107.853437 14.83 
Q 106.219375 14.624375 105.563125 14.070937 
Q 104.906875 13.5175 104.906875 12.38875 
Q 104.906875 11.1725 105.740313 10.58625 
Q 106.575937 9.997812 108.2975 9.997812 
Q 108.975625 9.997812 109.719375 10.100625 
Q 110.465312 10.20125 111.340312 10.42 
z
M 113.60875 14.85625 
L 113.60875 10.181562 
L 116.069688 10.181562 
L 116.069688 10.947187 
Q 116.069688 11.568437 116.063125 12.509062 
Q 116.056562 13.449687 116.056562 13.7625 
Q 116.056562 14.685625 116.104687 15.0925 
Q 116.152812 15.499375 116.26875 15.685312 
Q 116.4175 15.92375 116.660313 16.055 
Q 116.903125 16.184062 117.218125 16.184062 
Q 117.98375 16.184062 118.42125 15.595625 
Q 118.85875 15.007187 118.85875 13.961562 
L 118.85875 10.181562 
L 121.306562 10.181562 
L 121.306562 17.837812 
L 118.85875 17.837812 
L 118.85875 16.730937 
Q 118.305312 17.400312 117.68625 17.719687 
Q 117.067188 18.036875 116.323437 18.036875 
Q 114.995625 18.036875 114.302188 17.223125 
Q 113.60875 16.409375 113.60875 14.85625 
z
M 127.73125 16.258437 
Q 128.516563 16.258437 128.93 15.685312 
Q 129.345625 15.11 129.345625 14.01625 
Q 129.345625 12.9225 128.93 12.349375 
Q 128.516563 11.774062 127.73125 11.774062 
Q 126.945937 11.774062 126.52375 12.351562 
Q 126.10375 12.929062 126.10375 14.01625 
Q 126.10375 15.103437 126.52375 15.680937 
Q 126.945937 16.258437 127.73125 16.258437 
z
M 126.10375 11.301562 
Q 126.61125 10.632187 127.225938 10.315 
Q 127.840625 9.997812 128.64125 9.997812 
Q 130.056562 9.997812 130.964375 11.122187 
Q 131.874375 12.246562 131.874375 14.01625 
Q 131.874375 15.785937 130.964375 16.9125 
Q 130.056562 18.036875 128.64125 18.036875 
Q 127.840625 18.036875 127.225938 17.719687 
Q 126.61125 17.400312 126.10375 16.730937 
L 126.10375 17.837812 
L 123.658125 17.837812 
L 123.658125 7.2 
L 126.10375 7.2 
L 126.10375 11.301562 
z
M 133.26125 12.813125 
L 137.553125 12.813125 
L 137.553125 14.801562 
L 133.26125 14.801562 
L 133.26125 12.813125 
z
M 146.583125 11.4525 
Q 147.049062 10.741562 147.687813 10.369687 
Q 148.326562 9.997812 149.092187 9.997812 
Q 150.41125 9.997812 151.1025 10.811562 
Q 151.79375 11.623125 151.79375 13.17625 
L 151.79375 17.837812 
L 149.332812 17.837812 
L 149.332812 13.845625 
Q 149.339375 13.755937 149.341563 13.661875 
Q 149.345937 13.565625 149.345937 13.388437 
Q 149.345937 12.574687 149.105312 12.209375 
Q 148.866875 11.841875 148.333125 11.841875 
Q 147.6375 11.841875 147.256875 12.417187 
Q 146.878437 12.990312 146.863125 14.0775 
L 146.863125 17.837812 
L 144.402187 17.837812 
L 144.402187 13.845625 
Q 144.402187 12.574687 144.183437 12.209375 
Q 143.964687 11.841875 143.404687 11.841875 
Q 142.700312 11.841875 142.3175 12.419375 
Q 141.934687 12.996875 141.934687 14.070937 
L 141.934687 17.837812 
L 139.47375 17.837812 
L 139.47375 10.181562 
L 141.934687 10.181562 
L 141.934687 11.301562 
Q 142.3875 10.654062 142.971563 10.325937 
Q 143.555625 9.997812 144.26 9.997812 
Q 145.051875 9.997812 145.66 10.380625 
Q 146.270312 10.763437 146.583125 11.4525 
z
M 160.058125 10.42 
L 160.058125 12.279375 
Q 159.272813 11.95125 158.54 11.787187 
Q 157.809375 11.623125 157.159687 11.623125 
Q 156.461875 11.623125 156.122813 11.798125 
Q 155.785937 11.973125 155.785937 12.334062 
Q 155.785937 12.629375 156.041875 12.786875 
Q 156.297812 12.942187 156.960625 13.01875 
L 157.391562 13.08 
Q 159.272813 13.318437 159.920312 13.865312 
Q 160.57 14.412187 160.57 15.5825 
Q 160.57 16.805312 159.666562 17.422187 
Q 158.765312 18.036875 156.975938 18.036875 
Q 156.216875 18.036875 155.405313 17.916562 
Q 154.595937 17.79625 153.740625 17.557812 
L 153.740625 15.698437 
Q 154.473437 16.052812 155.24125 16.232187 
Q 156.01125 16.409375 156.803125 16.409375 
Q 157.522813 16.409375 157.88375 16.2125 
Q 158.246875 16.013437 158.246875 15.621875 
Q 158.246875 15.29375 157.9975 15.134062 
Q 157.748125 14.974375 157.002187 14.884687 
L 156.57125 14.83 
Q 154.937187 14.624375 154.280937 14.070937 
Q 153.624687 13.5175 153.624687 12.38875 
Q 153.624687 11.1725 154.458125 10.58625 
Q 155.29375 9.997812 157.015312 9.997812 
Q 157.693438 9.997812 158.437187 10.100625 
Q 159.183125 10.20125 160.058125 10.42 
z
M 167.283437 7.2 
L 169.729062 7.2 
L 169.729062 17.837812 
L 167.283437 17.837812 
L 167.283437 7.2 
z
M 175.725 11.747812 
Q 174.91125 11.747812 174.484688 12.331875 
Q 174.058125 12.915937 174.058125 14.01625 
Q 174.058125 15.116562 174.484688 15.702812 
Q 174.91125 16.286875 175.725 16.286875 
Q 176.525625 16.286875 176.947812 15.702812 
Q 177.372187 15.116562 177.372187 14.01625 
Q 177.372187 12.915937 176.947812 12.331875 
Q 176.525625 11.747812 175.725 11.747812 
z
M 175.725 9.997812 
Q 177.700312 9.997812 178.811563 11.065312 
Q 179.922812 12.130625 179.922812 14.01625 
Q 179.922812 15.904062 178.811563 16.971562 
Q 177.700312 18.036875 175.725 18.036875 
Q 173.743125 18.036875 172.625313 16.971562 
Q 171.5075 15.904062 171.5075 14.01625 
Q 171.5075 12.130625 172.625313 11.065312 
Q 173.743125 9.997812 175.725 9.997812 
z
M 185.343437 11.747812 
Q 184.529687 11.747812 184.103125 12.331875 
Q 183.676563 12.915937 183.676563 14.01625 
Q 183.676563 15.116562 184.103125 15.702812 
Q 184.529687 16.286875 185.343437 16.286875 
Q 186.144063 16.286875 186.56625 15.702812 
Q 186.990625 15.116562 186.990625 14.01625 
Q 186.990625 12.915937 186.56625 12.331875 
Q 186.144063 11.747812 185.343437 11.747812 
z
M 185.343437 9.997812 
Q 187.31875 9.997812 188.43 11.065312 
Q 189.54125 12.130625 189.54125 14.01625 
Q 189.54125 15.904062 188.43 16.971562 
Q 187.31875 18.036875 185.343437 18.036875 
Q 183.361563 18.036875 182.24375 16.971562 
Q 181.125937 15.904062 181.125937 14.01625 
Q 181.125937 12.130625 182.24375 11.065312 
Q 183.361563 9.997812 185.343437 9.997812 
z
M 193.765312 16.730937 
L 193.765312 20.749375 
L 191.319688 20.749375 
L 191.319688 10.181562 
L 193.765312 10.181562 
L 193.765312 11.301562 
Q 194.272813 10.632187 194.8875 10.315 
Q 195.502188 9.997812 196.302813 9.997812 
Q 197.718125 9.997812 198.625938 11.122187 
Q 199.535938 12.246562 199.535938 14.01625 
Q 199.535938 15.785937 198.625938 16.9125 
Q 197.718125 18.036875 196.302813 18.036875 
Q 195.502188 18.036875 194.8875 17.719687 
Q 194.272813 17.400312 193.765312 16.730937 
z
M 195.392813 11.774062 
Q 194.6075 11.774062 194.185313 12.351562 
Q 193.765312 12.929062 193.765312 14.01625 
Q 193.765312 15.103437 194.185313 15.680937 
Q 194.6075 16.258437 195.392813 16.258437 
Q 196.178125 16.258437 196.591563 15.685312 
Q 197.007188 15.11 197.007188 14.01625 
Q 197.007188 12.9225 196.591563 12.349375 
Q 196.178125 11.774062 195.392813 11.774062 
z
M 201.592187 15.193125 
L 204.053125 15.193125 
L 204.053125 17.277812 
L 202.364375 19.82625 
L 200.909688 19.82625 
L 201.592187 17.277812 
L 201.592187 15.193125 
z
M 217.512812 10.42 
L 217.512812 12.279375 
Q 216.7275 11.95125 215.994687 11.787187 
Q 215.264062 11.623125 214.614375 11.623125 
Q 213.916562 11.623125 213.5775 11.798125 
Q 213.240625 11.973125 213.240625 12.334062 
Q 213.240625 12.629375 213.496563 12.786875 
Q 213.7525 12.942187 214.415312 13.01875 
L 214.84625 13.08 
Q 216.7275 13.318437 217.375 13.865312 
Q 218.024687 14.412187 218.024687 15.5825 
Q 218.024687 16.805312 217.12125 17.422187 
Q 216.22 18.036875 214.430625 18.036875 
Q 213.671563 18.036875 212.86 17.916562 
Q 212.050625 17.79625 211.195312 17.557812 
L 211.195312 15.698437 
Q 211.928125 16.052812 212.695938 16.232187 
Q 213.465937 16.409375 214.257812 16.409375 
Q 214.9775 16.409375 215.338437 16.2125 
Q 215.701562 16.013437 215.701562 15.621875 
Q 215.701562 15.29375 215.452188 15.134062 
Q 215.202813 14.974375 214.456875 14.884687 
L 214.025937 14.83 
Q 212.391875 14.624375 211.735625 14.070937 
Q 211.079375 13.5175 211.079375 12.38875 
Q 211.079375 11.1725 211.912813 10.58625 
Q 212.748437 9.997812 214.47 9.997812 
Q 215.148125 9.997812 215.891875 10.100625 
Q 216.637812 10.20125 217.512812 10.42 
z
M 219.864375 10.181562 
L 222.31 10.181562 
L 222.31 17.837812 
L 219.864375 17.837812 
L 219.864375 10.181562 
z
M 219.864375 7.2 
L 222.31 7.2 
L 222.31 9.197187 
L 219.864375 9.197187 
L 219.864375 7.2 
z
M 232.359375 13.17625 
L 232.359375 17.837812 
L 229.898438 17.837812 
L 229.898438 17.07875 
L 229.898438 14.27 
Q 229.898438 13.279062 229.854688 12.902812 
Q 229.810938 12.526562 229.701563 12.349375 
Q 229.557187 12.10875 229.31 11.975312 
Q 229.065 11.841875 228.75 11.841875 
Q 227.984375 11.841875 227.546875 12.434687 
Q 227.109375 13.025312 227.109375 14.070937 
L 227.109375 17.837812 
L 224.66375 17.837812 
L 224.66375 10.181562 
L 227.109375 10.181562 
L 227.109375 11.301562 
Q 227.662813 10.632187 228.284063 10.315 
Q 228.9075 9.997812 229.66 9.997812 
Q 230.985625 9.997812 231.6725 10.811562 
Q 232.359375 11.623125 232.359375 13.17625 
z
M 239.838437 16.538437 
Q 239.333125 17.207812 238.722813 17.522812 
Q 238.114688 17.837812 237.31625 17.837812 
Q 235.914062 17.837812 234.9975 16.735312 
Q 234.083125 15.630625 234.083125 13.92 
Q 234.083125 12.205 234.9975 11.109062 
Q 235.914062 10.010937 237.31625 10.010937 
Q 238.114688 10.010937 238.722813 10.325937 
Q 239.333125 10.63875 239.838437 11.316875 
L 239.838437 10.181562 
L 242.299375 10.181562 
L 242.299375 17.065625 
Q 242.299375 18.911875 241.133438 19.885312 
Q 239.9675 20.85875 237.75375 20.85875 
Q 237.03625 20.85875 236.364688 20.749375 
Q 235.695312 20.64 235.019375 20.414687 
L 235.019375 18.507187 
Q 235.660313 18.876875 236.275 19.058437 
Q 236.891875 19.24 237.513125 19.24 
Q 238.71625 19.24 239.27625 18.712812 
Q 239.838437 18.185625 239.838437 17.065625 
L 239.838437 16.538437 
z
M 238.224063 11.774062 
Q 237.465 11.774062 237.040625 12.33625 
Q 236.618437 12.89625 236.618437 13.92 
Q 236.618437 14.974375 237.0275 15.516875 
Q 237.43875 16.059375 238.224063 16.059375 
Q 238.989688 16.059375 239.414062 15.499375 
Q 239.838437 14.939375 239.838437 13.92 
Q 239.838437 12.89625 239.414062 12.33625 
Q 238.989688 11.774062 238.224063 11.774062 
z
M 244.650937 7.2 
L 247.096563 7.2 
L 247.096563 17.837812 
L 244.650937 17.837812 
L 244.650937 7.2 
z
M 257.09125 13.99 
L 257.09125 14.685625 
L 251.370938 14.685625 
Q 251.458438 15.5475 251.992188 15.978437 
Q 252.525938 16.409375 253.481875 16.409375 
Q 254.254063 16.409375 255.063438 16.179687 
Q 255.875 15.95 256.730313 15.48625 
L 256.730313 17.371875 
Q 255.861875 17.7 254.993437 17.868437 
Q 254.125 18.036875 253.256563 18.036875 
Q 251.178438 18.036875 250.025625 16.980312 
Q 248.875 15.92375 248.875 14.01625 
Q 248.875 12.14375 250.005938 11.071875 
Q 251.136875 9.997812 253.120938 9.997812 
Q 254.925625 9.997812 256.008438 11.085 
Q 257.09125 12.17 257.09125 13.99 
z
M 254.575625 13.17625 
Q 254.575625 12.478437 254.16875 12.051875 
Q 253.761875 11.623125 253.105625 11.623125 
Q 252.394688 11.623125 251.950625 12.023437 
Q 251.506563 12.42375 251.397188 13.17625 
L 254.575625 13.17625 
z
M 258.528437 12.813125 
L 262.820312 12.813125 
L 262.820312 14.801562 
L 258.528437 14.801562 
L 258.528437 12.813125 
z
M 269.964688 11.301562 
L 269.964688 7.2 
L 272.425625 7.2 
L 272.425625 17.837812 
L 269.964688 17.837812 
L 269.964688 16.730937 
Q 269.459375 17.406875 268.849063 17.721875 
Q 268.240938 18.036875 267.4425 18.036875 
Q 266.027188 18.036875 265.117188 16.9125 
Q 264.209375 15.785937 264.209375 14.01625 
Q 264.209375 12.246562 265.117188 11.122187 
Q 266.027188 9.997812 267.4425 9.997812 
Q 268.234375 9.997812 268.846875 10.315 
Q 269.459375 10.632187 269.964688 11.301562 
z
M 268.350313 16.258437 
Q 269.137812 16.258437 269.55125 15.685312 
Q 269.964688 15.11 269.964688 14.01625 
Q 269.964688 12.9225 269.55125 12.349375 
Q 269.137812 11.774062 268.350313 11.774062 
Q 267.571563 11.774062 267.158125 12.349375 
Q 266.744687 12.9225 266.744687 14.01625 
Q 266.744687 15.11 267.158125 15.685312 
Q 267.571563 16.258437 268.350313 16.258437 
z
M 274.777188 10.181562 
L 277.222813 10.181562 
L 277.222813 17.837812 
L 274.777188 17.837812 
L 274.777188 10.181562 
z
M 274.777188 7.2 
L 277.222813 7.2 
L 277.222813 9.197187 
L 274.777188 9.197187 
L 274.777188 7.2 
z
M 284.785 16.538437 
Q 284.279688 17.207812 283.669375 17.522812 
Q 283.06125 17.837812 282.262812 17.837812 
Q 280.860625 17.837812 279.944063 16.735312 
Q 279.029688 15.630625 279.029688 13.92 
Q 279.029688 12.205 279.944063 11.109062 
Q 280.860625 10.010937 282.262812 10.010937 
Q 283.06125 10.010937 283.669375 10.325937 
Q 284.279688 10.63875 284.785 11.316875 
L 284.785 10.181562 
L 287.245938 10.181562 
L 287.245938 17.065625 
Q 287.245938 18.911875 286.08 19.885312 
Q 284.914062 20.85875 282.700312 20.85875 
Q 281.982813 20.85875 281.31125 20.749375 
Q 280.641875 20.64 279.965937 20.414687 
L 279.965937 18.507187 
Q 280.606875 18.876875 281.221563 19.058437 
Q 281.838437 19.24 282.459688 19.24 
Q 283.662813 19.24 284.222813 18.712812 
Q 284.785 18.185625 284.785 17.065625 
L 284.785 16.538437 
z
M 283.170625 11.774062 
Q 282.411563 11.774062 281.987188 12.33625 
Q 281.565 12.89625 281.565 13.92 
Q 281.565 14.974375 281.974063 15.516875 
Q 282.385312 16.059375 283.170625 16.059375 
Q 283.93625 16.059375 284.360625 15.499375 
Q 284.785 14.939375 284.785 13.92 
Q 284.785 12.89625 284.360625 12.33625 
Q 283.93625 11.774062 283.170625 11.774062 
z
M 289.5975 10.181562 
L 292.043125 10.181562 
L 292.043125 17.837812 
L 289.5975 17.837812 
L 289.5975 10.181562 
z
M 289.5975 7.2 
L 292.043125 7.2 
L 292.043125 9.197187 
L 289.5975 9.197187 
L 289.5975 7.2 
z
M 297.067813 8.007187 
L 297.067813 10.181562 
L 299.592188 10.181562 
L 299.592188 11.931562 
L 297.067813 11.931562 
L 297.067813 15.177812 
Q 297.067813 15.711562 297.28 15.899687 
Q 297.492188 16.087812 298.122187 16.087812 
L 299.38 16.087812 
L 299.38 17.837812 
L 297.28 17.837812 
Q 295.831875 17.837812 295.225938 17.234062 
Q 294.622187 16.628125 294.622187 15.177812 
L 294.622187 11.931562 
L 293.40375 11.931562 
L 293.40375 10.181562 
L 294.622187 10.181562 
L 294.622187 8.007187 
L 297.067813 8.007187 
z
M 300.670625 12.813125 
L 304.9625 12.813125 
L 304.9625 14.801562 
L 300.670625 14.801562 
L 300.670625 12.813125 
z
M 316.569375 13.626875 
Q 316.085938 13.626875 315.819063 14.046875 
Q 315.552188 14.466875 315.552188 15.247812 
Q 315.552188 16.033125 315.814687 16.453125 
Q 316.077188 16.873125 316.569375 16.873125 
Q 317.061563 16.873125 317.321875 16.453125 
Q 317.582188 16.033125 317.582188 15.247812 
Q 317.582188 14.466875 317.3175 14.046875 
Q 317.055 13.626875 316.569375 13.626875 
z
M 316.569375 12.478437 
Q 317.8425 12.478437 318.573125 13.217812 
Q 319.30375 13.955 319.30375 15.247812 
Q 319.30375 16.538437 318.573125 17.28875 
Q 317.8425 18.036875 316.569375 18.036875 
Q 315.298438 18.036875 314.563438 17.28875 
Q 313.828438 16.538437 313.828438 15.247812 
Q 313.828438 13.961562 314.563438 13.22 
Q 315.298438 12.478437 316.569375 12.478437 
z
M 310.302188 18.036875 
L 308.790625 18.036875 
L 315.169375 7.447187 
L 316.6875 7.447187 
L 310.302188 18.036875 
z
M 308.9 7.447187 
Q 310.170938 7.447187 310.899375 8.18875 
Q 311.627813 8.930312 311.627813 10.223125 
Q 311.627813 11.51375 310.899375 12.259687 
Q 310.170938 13.005625 308.9 13.005625 
Q 307.629063 13.005625 306.900625 12.259687 
Q 306.172188 11.51375 306.172188 10.223125 
Q 306.172188 8.930312 306.900625 8.18875 
Q 307.629063 7.447187 308.9 7.447187 
z
M 308.9 8.595625 
Q 308.407813 8.595625 308.140938 9.02 
Q 307.874063 9.442187 307.874063 10.223125 
Q 307.874063 11.008437 308.140938 11.437187 
Q 308.407813 11.86375 308.9 11.86375 
Q 309.392188 11.86375 309.654688 11.437187 
Q 309.919375 11.008437 309.919375 10.223125 
Q 309.919375 9.442187 309.6525 9.02 
Q 309.385625 8.595625 308.9 8.595625 
z
M 325.115938 10.181562 
L 327.495938 10.181562 
L 328.78 15.457812 
L 330.072812 10.181562 
L 332.115938 10.181562 
L 333.402188 15.403125 
L 334.692813 10.181562 
L 337.072812 10.181562 
L 335.055938 17.837812 
L 332.382812 17.837812 
L 331.09 12.574687 
L 329.805938 17.837812 
L 327.132812 17.837812 
L 325.115938 10.181562 
z
M 338.735313 10.181562 
L 341.180938 10.181562 
L 341.180938 17.837812 
L 338.735313 17.837812 
L 338.735313 10.181562 
z
M 338.735313 7.2 
L 341.180938 7.2 
L 341.180938 9.197187 
L 338.735313 9.197187 
L 338.735313 7.2 
z
M 351.230313 13.17625 
L 351.230313 17.837812 
L 348.769375 17.837812 
L 348.769375 17.07875 
L 348.769375 14.27 
Q 348.769375 13.279062 348.725625 12.902812 
Q 348.681875 12.526562 348.5725 12.349375 
Q 348.428125 12.10875 348.180938 11.975312 
Q 347.935938 11.841875 347.620938 11.841875 
Q 346.855313 11.841875 346.417813 12.434687 
Q 345.980313 13.025312 345.980313 14.070937 
L 345.980313 17.837812 
L 343.534688 17.837812 
L 343.534688 10.181562 
L 345.980313 10.181562 
L 345.980313 11.301562 
Q 346.53375 10.632187 347.155 10.315 
Q 347.778437 9.997812 348.530937 9.997812 
Q 349.856562 9.997812 350.543438 10.811562 
Q 351.230313 11.623125 351.230313 13.17625 
z
" style="fill: #c9d1d9"/>
   </g>
   <g id="line2d_35">
    <path d="M 68.092238 261.583076 
L 82.645694 260.924324 
L 94.960158 260.150419 
L 105.595376 259.265527 
L 115.111098 258.252273 
L 123.507323 257.139031 
L 131.3438 255.871304 
L 138.06078 254.572772 
L 144.77776 253.041551 
L 150.934992 251.398037 
L 156.532475 249.672413 
L 161.57021 247.903137 
L 166.607945 245.901043 
L 171.085932 243.901273 
L 175.563919 241.669224 
L 180.041905 239.177916 
L 183.960144 236.761761 
L 187.878382 234.101752 
L 191.796621 231.17328 
L 195.714859 227.949249 
L 199.633097 224.39983 
L 202.991587 221.073682 
L 206.350077 217.461796 
L 209.708567 213.539622 
L 213.067057 209.280506 
L 216.425547 204.655503 
L 219.784037 199.633178 
L 223.142528 194.179401 
L 226.501018 188.257106 
L 229.859508 181.826044 
L 233.217998 174.842508 
L 236.576488 167.259038 
L 239.934978 159.024094 
L 243.293468 150.08171 
L 246.092209 142.045627 
L 248.890951 133.438234 
L 251.689693 124.218915 
L 254.488435 114.344166 
L 257.287176 103.767391 
L 260.085918 92.438681 
L 262.88466 80.304578 
L 265.683401 67.307824 
L 268.482143 53.387091 
L 271.280885 38.476691 
L 274.079626 22.506264 
L 274.639375 19.178436 
L 275.199123 19.302795 
L 278.557613 38.591212 
L 281.916103 56.353705 
L 285.274593 72.710992 
L 288.633083 87.77424 
L 291.431825 99.412549 
L 291.431825 99.412549 
" clip-path="url(#pca24fef795)" style="fill: none; stroke: #56b4e9; stroke-width: 2; stroke-linecap: square"/>
   </g>
   <g id="line2d_36">
    <defs>
     <path id="m03eafaee6d" d="M 0 3 
C 0.795609 3 1.55874 2.683901 2.12132 2.12132 
C 2.683901 1.55874 3 0.795609 3 0 
C 3 -0.795609 2.683901 -1.55874 2.12132 -2.12132 
C 1.55874 -2.683901 0.795609 -3 0 -3 
C -0.795609 -3 -1.55874 -2.683901 -2.12132 -2.12132 
C -2.683901 -1.55874 -3 -0.795609 -3 0 
C -3 0.795609 -2.683901 1.55874 -2.12132 2.12132 
C -1.55874 2.683901 -0.795609 3 0 3 
z
" style="stroke: #56b4e9"/>
    </defs>
    <g clip-path="url(#pca24fef795)">
     <use xlink:href="#m03eafaee6d" x="284.002103" y="66.671497" style="fill: #56b4e9; stroke: #56b4e9"/>
    </g>
   </g>
   <g id="line2d_37">
    <g clip-path="url(#pca24fef795)">
     <use xlink:href="#m03eafaee6d" x="169.353794" y="244.70097" style="fill: #56b4e9; stroke: #56b4e9"/>
    </g>
   </g>
   <g id="line2d_38">
    <g clip-path="url(#pca24fef795)">
     <use xlink:href="#m03eafaee6d" x="96.338434" y="260.048339" style="fill: #56b4e9; stroke: #56b4e9"/>
    </g>
   </g>
   <g id="text_13">
    <text style="font-size: 9px; font-family: 'DejaVu Sans'; text-anchor: end; fill: #56b4e9" x="227.107979" y="155.149387" transform="rotate(-0 227.107979 155.149387)">analytic ceiling</text>
   </g>
   <g id="text_14">
    <text style="font-size: 9px; font-family: 'DejaVu Sans'; text-anchor: end; fill: #56b4e9" x="278.002103" y="56.509387" transform="rotate(-0 278.002103 56.509387)">1.80× @ 10 ms</text>
   </g>
   <g id="text_15">
    <text style="font-size: 9px; font-family: 'DejaVu Sans'; text-anchor: start; fill: #56b4e9" x="106.338434" y="259.886229" transform="rotate(-0 106.338434 259.886229)">1.01× @ 0.1 ms</text>
   </g>
   <g id="line2d_39">
    <defs>
     <path id="mdc194cc158" d="M -4.5 4.5 
L 4.5 4.5 
L 4.5 -4.5 
L -4.5 -4.5 
z
" style="stroke: #e8783c; stroke-width: 1.8; stroke-linejoin: miter"/>
    </defs>
    <g clip-path="url(#pca24fef795)">
     <use xlink:href="#mdc194cc158" x="284.002103" y="96.138444" style="fill-opacity: 0; stroke: #e8783c; stroke-width: 1.8; stroke-linejoin: miter"/>
    </g>
   </g>
   <g id="text_16">
    <text style="font-size: 8.5px; font-family: 'DejaVu Sans'; fill: #e8783c" transform="translate(291.002103 111.447946)">1.68× measured</text>
    <text style="font-size: 8.5px; font-family: 'DejaVu Sans'; fill: #e8783c" transform="translate(291.002103 121.65027)">(below ideal)</text>
   </g>
   <g id="patch_6">
    <path d="M 149.524731 141.805353 
Q 123.34142 200.015702 97.616745 257.206418 
" style="fill: none; stroke: #8b949e; stroke-linecap: round"/>
    <path d="M 100.561862 254.803027 
L 97.616745 257.206418 
L 97.461102 253.40829 
" style="fill: none; stroke: #8b949e; stroke-linecap: round"/>
   </g>
   <g id="text_17">
    <g id="patch_7">
     <path d="M 102.033824 139.587724 
L 220.425543 139.587724 
Q 223.825543 139.587724 223.825543 136.187724 
L 223.825543 95.378427 
Q 223.825543 91.978427 220.425543 91.978427 
L 102.033824 91.978427 
Q 98.633824 91.978427 98.633824 95.378427 
L 98.633824 136.187724 
Q 98.633824 139.587724 102.033824 139.587724 
z
" style="fill: #0d1117; opacity: 0.95; stroke: #8b949e; stroke-width: 0.8; stroke-linejoin: miter"/>
    </g>
    <text style="font-size: 8.5px; font-family: 'DejaVu Sans'; fill: #c9d1d9" transform="translate(102.033824 102.687929)">idealized ceiling —</text>
    <text style="font-size: 8.5px; font-family: 'DejaVu Sans'; fill: #c9d1d9" transform="translate(102.033824 112.890253)">off-GIL serialize only;</text>
    <text style="font-size: 8.5px; font-family: 'DejaVu Sans'; fill: #c9d1d9" transform="translate(102.033824 123.092578)">~1.08× w/ Python serialize,</text>
    <text style="font-size: 8.5px; font-family: 'DejaVu Sans'; fill: #c9d1d9" transform="translate(102.033824 133.294902)">→ ~1.01× at 0.1 ms work</text>
   </g>
  </g>
  <g id="axes_2">
   <g id="patch_8">
    <path d="M 374.904996 263.117813 
L 514.492238 263.117813 
L 514.492238 29.837813 
L 374.904996 29.837813 
z
" style="fill: #0d1117"/>
   </g>
   <g id="matplotlib.axis_3"/>
   <g id="matplotlib.axis_4">
    <g id="ytick_6">
     <g id="line2d_40">
      <g>
       <use xlink:href="#ma62b434ad5" x="374.904996" y="219.377812" style="fill: #c9d1d9; stroke: #c9d1d9; stroke-width: 0.8"/>
      </g>
     </g>
     <g id="text_18">
      <text style="font-size: 10px; font-family: 'DejaVu Sans'; text-anchor: end; fill: #c9d1d9" x="367.904996" y="223.177031" transform="rotate(-0 367.904996 223.177031)">serial</text>
     </g>
    </g>
    <g id="ytick_7">
     <g id="line2d_41">
      <g>
       <use xlink:href="#ma62b434ad5" x="374.904996" y="146.477812" style="fill: #c9d1d9; stroke: #c9d1d9; stroke-width: 0.8"/>
      </g>
     </g>
     <g id="text_19">
      <text style="font-size: 10px; font-family: 'DejaVu Sans'; text-anchor: end; fill: #c9d1d9" x="367.904996" y="150.277031" transform="rotate(-0 367.904996 150.277031)">Python thread</text>
     </g>
    </g>
    <g id="ytick_8">
     <g id="line2d_42">
      <g>
       <use xlink:href="#ma62b434ad5" x="374.904996" y="73.577812" style="fill: #c9d1d9; stroke: #c9d1d9; stroke-width: 0.8"/>
      </g>
     </g>
     <g id="text_20">
      <text style="font-size: 10px; font-family: 'DejaVu Sans'; text-anchor: end; fill: #c9d1d9" x="367.904996" y="77.377031" transform="rotate(-0 367.904996 77.377031)">native thread</text>
     </g>
    </g>
   </g>
   <g id="line2d_43">
    <path d="M 444.698617 263.117813 
L 444.698617 29.837813 
" clip-path="url(#p8ad997a12b)" style="fill: none; stroke-dasharray: 1.2,1.98; stroke-dashoffset: 0; stroke: #8b949e; stroke-width: 1.2"/>
   </g>
   <g id="patch_9">
    <path d="M 374.904996 263.117812 
L 374.904996 29.837812 
" style="fill: none; stroke: #8b949e; stroke-linejoin: miter; stroke-linecap: square"/>
   </g>
   <g id="patch_10">
    <path d="M 374.904996 263.117813 
L 514.492238 263.117813 
" style="fill: none; stroke: #8b949e; stroke-linejoin: miter; stroke-linecap: square"/>
   </g>
   <g id="patch_11">
    <path d="M 374.904996 237.602812 
L 444.698617 237.602812 
L 444.698617 201.152812 
L 374.904996 201.152812 
z
" clip-path="url(#p8ad997a12b)" style="fill: #e8783c"/>
   </g>
   <g id="patch_12">
    <path d="M 374.904996 164.702812 
L 450.282106 164.702812 
L 450.282106 128.252812 
L 374.904996 128.252812 
z
" clip-path="url(#p8ad997a12b)" style="fill: #e8783c"/>
   </g>
   <g id="patch_13">
    <path d="M 374.904996 91.802812 
L 492.158279 91.802812 
L 492.158279 55.352812 
L 374.904996 55.352812 
z
" clip-path="url(#p8ad997a12b)" style="fill: url(#h1a77451942); stroke: #e8783c; stroke-width: 1.4; stroke-linejoin: miter"/>
   </g>
   <g id="text_21">
    <text style="font-size: 10px; font-family: 'DejaVu Sans'; text-anchor: start; fill: #8b949e" x="374.904996" y="18.104269" transform="rotate(-0 374.904996 18.104269)">overlap @ 10 ms work (best case)</text>
   </g>
   <g id="patch_14">
    <path d="M 374.904996 91.802812 
L 492.158279 91.802812 
L 492.158279 55.352812 
L 374.904996 55.352812 
L 374.904996 91.802812 
z
" clip-path="url(#p8ad997a12b)" style="fill: none; stroke: #c9d1d9; stroke-linejoin: miter"/>
   </g>
   <g id="text_22">
    <text style="font-weight: 700; font-size: 9.5px; font-family: 'DejaVu Sans'; text-anchor: start; fill: #c9d1d9" x="448.698617" y="221.845586" transform="rotate(-0 448.698617 221.845586)">1.00×</text>
   </g>
   <g id="text_23">
    <text style="font-weight: 700; font-size: 9.5px; font-family: 'DejaVu Sans'; text-anchor: start; fill: #c9d1d9" x="454.282106" y="148.945586" transform="rotate(-0 454.282106 148.945586)">1.08×</text>
   </g>
   <g id="text_24">
    <text style="font-weight: 700; font-size: 9.5px; font-family: 'DejaVu Sans'; text-anchor: start; fill: #c9d1d9" x="496.158279" y="76.045586" transform="rotate(-0 496.158279 76.045586)">1.68×</text>
   </g>
   <g id="text_25">
    <text style="font-size: 8px; font-family: 'DejaVu Sans'; text-anchor: middle; fill: #8b949e" x="444.698617" y="265.551562" transform="rotate(-0 444.698617 265.551562)">baseline 1.00×</text>
   </g>
   <g id="text_26">
    <text style="font-size: 8px; font-family: 'DejaVu Sans'; text-anchor: start; fill: #8b949e" x="379.092613" y="186.46425" transform="rotate(-0 379.092613 186.46425)">naive Python serialize lands here</text>
   </g>
   <g id="text_27">
    <text style="font-size: 8px; font-family: 'DejaVu Sans'; fill: #8b949e" transform="translate(379.092613 110.950156)">off-GIL ceiling (ctypes stand-in) —</text>
    <text style="font-size: 8px; font-family: 'DejaVu Sans'; fill: #8b949e" transform="translate(379.092613 120.552344)">not measured transport</text>
   </g>
  </g>
  <g id="text_28">
   <text style="font-style: italic; font-size: 8px; font-family: 'DejaVu Sans'; text-anchor: middle; fill: #8b949e" x="284.092238" y="309.147938" transform="rotate(-0 284.092238 309.147938)">8000-neuron net · ~8 ms compute + 10 ms transport-work / 20 ms chunk · 30 chunks · bench_gil_overlap.py (NEST 3.8.0)</text>
  </g>
 </g>
 <defs>
  <clipPath id="pca24fef795">
   <rect x="68.092238" y="29.837812" width="223.339587" height="233.28"/>
  </clipPath>
  <clipPath id="p8ad997a12b">
   <rect x="374.904996" y="29.837812" width="139.587242" height="233.28"/>
  </clipPath>
 </defs>
 <defs>
  <pattern id="h1a77451942" patternUnits="userSpaceOnUse" x="0" y="0" width="72" height="72">
   <rect x="0" y="0" width="73" height="73" fill="none"/>
   <path d="M -36 36 
L 36 -36 
M -32 40 
L 40 -32 
M -28 44 
L 44 -28 
M -24 48 
L 48 -24 
M -20 52 
L 52 -20 
M -16 56 
L 56 -16 
M -12 60 
L 60 -12 
M -8 64 
L 64 -8 
M -4 68 
L 68 -4 
M 0 72 
L 72 0 
M 4 76 
L 76 4 
M 8 80 
L 80 8 
M 12 84 
L 84 12 
M 16 88 
L 88 16 
M 20 92 
L 92 20 
M 24 96 
L 96 24 
M 28 100 
L 100 28 
M 32 104 
L 104 32 
M 36 108 
L 108 36 
" style="fill: #e8783c; stroke: #e8783c; stroke-width: 1.0; stroke-linecap: butt; stroke-linejoin: miter"/>
  </pattern>
 </defs>
</svg>
