<svg xmlns="http://www.w3.org/2000/svg" width="860" height="610" viewBox="0 0 860 610" font-family="-apple-system, BlinkMacSystemFont, 'Segoe UI', 'Noto Sans', Helvetica, Arial, sans-serif" role="img"><defs>
  <linearGradient id="pageBg" x1="0" y1="0" x2="0" y2="1">
    <stop offset="0" stop-color="#11161d"/><stop offset="1" stop-color="#0d1117"/>
  </linearGradient>
  <linearGradient id="surface" x1="0" y1="0" x2="0" y2="1">
    <stop offset="0" stop-color="#161b22"/><stop offset="1" stop-color="#11161d"/>
  </linearGradient>
  <linearGradient id="busAction" x1="0" y1="0" x2="1" y2="0"><stop offset="0" stop-color="#e8783c" stop-opacity="0.85"/><stop offset="0.5" stop-color="#ff8a4c" stop-opacity="1"/><stop offset="1" stop-color="#e8783c" stop-opacity="0.85"/></linearGradient>
  <linearGradient id="contractHero" x1="0" y1="0" x2="1" y2="1">
    <stop offset="0" stop-color="#a78bfa"/><stop offset="1" stop-color="#7c3aed"/>
  </linearGradient>
  <radialGradient id="gridDot" cx="0.5" cy="0.5" r="0.5">
    <stop offset="0" stop-color="#8b949e" stop-opacity="0.5"/>
    <stop offset="1" stop-color="#8b949e" stop-opacity="0"/>
  </radialGradient>
  <pattern id="grid" width="22" height="22" patternUnits="userSpaceOnUse">
    <circle cx="2" cy="2" r="1.4" fill="url(#gridDot)"/>
  </pattern>
  <pattern id="gridMajor" width="110" height="110" patternUnits="userSpaceOnUse">
    <path d="M110 0H0V110" fill="none" stroke="#8b949e" stroke-width="0.75" stroke-opacity="0.22"/>
  </pattern>
  <filter id="soft" x="-40%" y="-40%" width="180%" height="180%" color-interpolation-filters="sRGB">
    <feDropShadow dx="0" dy="4" stdDeviation="7" flood-color="#05070b" flood-opacity="0.6"/>
  </filter>
  <filter id="halo" x="-60%" y="-60%" width="220%" height="220%" color-interpolation-filters="sRGB">
    <feGaussianBlur stdDeviation="3"/>
  </filter>
  <filter id="glow" x="-90%" y="-90%" width="280%" height="280%" color-interpolation-filters="sRGB">
    <feGaussianBlur in="SourceGraphic" stdDeviation="3.4" result="b"/>
    <feFlood flood-color="#ff8a4c" flood-opacity="0.9"/>
    <feComposite in2="b" operator="in" result="g"/>
    <feMerge><feMergeNode in="g"/><feMergeNode in="g"/><feMergeNode in="SourceGraphic"/></feMerge>
  </filter>
  <marker id="arrowAction" markerWidth="9" markerHeight="9" refX="5" refY="4" orient="auto"><path d="M0,0 L7,4 L0,8 Z" fill="#e8783c"/></marker>
  <marker id="arrowControl" markerWidth="9" markerHeight="9" refX="5" refY="4" orient="auto"><path d="M0,0 L7,4 L0,8 Z" fill="#3a9ad9"/></marker>
  <marker id="replyControl" markerWidth="9" markerHeight="9" refX="3" refY="4" orient="auto"><path d="M7,0 L0,4 L7,8" fill="none" stroke="#3a9ad9" stroke-width="1.4" stroke-linejoin="round"/></marker>
  <marker id="arrowPercep" markerWidth="9" markerHeight="9" refX="5" refY="4" orient="auto"><path d="M0,0 L7,4 L0,8 Z" fill="#56b4e9"/></marker>
  <marker id="tapObserve" markerWidth="10" markerHeight="10" refX="4.5" refY="4.5" orient="auto"><circle cx="4.5" cy="4.5" r="3" fill="none" stroke="#8b949e" stroke-width="1.3"/></marker>
  <marker id="arrowContract" markerWidth="9" markerHeight="9" refX="5" refY="4" orient="auto"><path d="M0,0 L7,4 L0,8 Z" fill="#a78bfa"/></marker>
  <marker id="submoduleArrow" markerWidth="10" markerHeight="10" refX="6" refY="4.5" orient="auto"><path d="M2,1 L7,4.5 L2,8" fill="none" stroke="#8b949e" stroke-width="1.4" stroke-linejoin="round"/></marker>
  <marker id="arrowActive" markerWidth="9" markerHeight="9" refX="5" refY="4" orient="auto"><path d="M0,0 L7,4 L0,8 Z" fill="#33c295"/></marker>
  <marker id="arrowEstop" markerWidth="9" markerHeight="9" refX="5" refY="4" orient="auto"><path d="M0,0 L7,4 L0,8 Z" fill="#e8783c"/></marker>
  <marker id="arrowHold" markerWidth="9" markerHeight="9" refX="5" refY="4" orient="auto"><path d="M0,0 L7,4 L0,8 Z" fill="#f0b429"/></marker>
  <marker id="arrowMut" markerWidth="9" markerHeight="9" refX="5" refY="4" orient="auto"><path d="M0,0 L7,4 L0,8 Z" fill="#8b949e"/></marker>
  <filter id="glowContract" x="-90%" y="-90%" width="280%" height="280%" color-interpolation-filters="sRGB">
    <feGaussianBlur in="SourceGraphic" stdDeviation="3.4" result="b"/>
    <feFlood flood-color="#a78bfa" flood-opacity="0.9"/>
    <feComposite in2="b" operator="in" result="g"/>
    <feMerge><feMergeNode in="g"/><feMergeNode in="g"/><feMergeNode in="SourceGraphic"/></feMerge>
  </filter>
  <filter id="glowActive" x="-90%" y="-90%" width="280%" height="280%" color-interpolation-filters="sRGB">
    <feGaussianBlur in="SourceGraphic" stdDeviation="3.4" result="b"/>
    <feFlood flood-color="#33c295" flood-opacity="0.9"/>
    <feComposite in2="b" operator="in" result="g"/>
    <feMerge><feMergeNode in="g"/><feMergeNode in="g"/><feMergeNode in="SourceGraphic"/></feMerge>
  </filter>
</defs><rect x="0" y="0" width="860" height="610" rx="0" fill="url(#pageBg)"/><rect x="0" y="0" width="860" height="610" rx="0" fill="url(#gridMajor)"/><rect x="0" y="0" width="860" height="610" rx="0" fill="url(#grid)"/><text x="28" y="50" font-family="-apple-system, BlinkMacSystemFont, 'Segoe UI', 'Noto Sans', Helvetica, Arial, sans-serif" font-size="24" font-weight="800" font-style="normal" fill="#e6edf3" text-anchor="start" letter-spacing="-0.3" text-rendering="geometricPrecision">TOPOLOGY</text><text x="29" y="64" font-family="-apple-system, BlinkMacSystemFont, 'Segoe UI', 'Noto Sans', Helvetica, Arial, sans-serif" font-size="10.5" font-weight="600" font-style="normal" fill="#8b949e" text-anchor="start" letter-spacing="1.0" text-rendering="geometricPrecision">COMMANDER ⇄ BODY  ·  4 QoS PLANES  ·  OBSERVER ATTACHES FOR FREE</text><line x1="28" y1="74" x2="832" y2="74" stroke="#30363d" stroke-width="1" stroke-linecap="butt"/><text x="832" y="48" font-family="ui-monospace, SFMono-Regular, 'SF Mono', Menlo, Consolas, 'Liberation Mono', monospace" font-size="10" font-weight="600" font-style="normal" fill="#8b949e" text-anchor="end" letter-spacing="0.8" text-rendering="geometricPrecision">NCP · WIRE 0.5 · CONTRACT 24e8e6e31e1dec8a</text><path d="M144,348 L144,438 Q144,442 148,442 L356,442 Q360,442 360,446 L360,466" fill="none" stroke="#8b949e" stroke-width="1.5" stroke-linecap="round" stroke-linejoin="round" stroke-dasharray="3 3" marker-end="url(#tapObserve)"/><path d="M716,348 L716,438 Q716,442 712,442 L504,442 Q500,442 500,446 L500,466" fill="none" stroke="#8b949e" stroke-width="1.5" stroke-linecap="round" stroke-linejoin="round" stroke-dasharray="3 3" marker-end="url(#tapObserve)"/><path d="M680,252 L680,210 L184,210 L184,252" fill="none" stroke="#56b4e9" stroke-width="2.5" stroke-linecap="round" stroke-linejoin="round" stroke-dasharray="6 4" marker-end="url(#arrowPercep)"/><path d="M120,252 L120,168 L740,168 L740,252" fill="none" stroke="#3a9ad9" stroke-width="2.5" stroke-linecap="round" stroke-linejoin="round" marker-end="url(#arrowControl)"/><path d="M126,174 L120,168" fill="none" stroke="#3a9ad9" stroke-width="2.5" stroke-linecap="round" stroke-linejoin="round" marker-end="url(#replyControl)"/><line x1="244" y1="300" x2="616" y2="300" stroke="#e8783c" stroke-width="9" stroke-linecap="round" stroke-opacity="0.4" filter="url(#halo)"/><line x1="244" y1="300" x2="616" y2="300" stroke="url(#busAction)" stroke-width="4" stroke-linecap="round" marker-end="url(#arrowAction)"/><line x1="300" y1="295" x2="300" y2="305" stroke="#e8783c" stroke-width="1" stroke-linecap="round" stroke-opacity="0.7"/><line x1="372" y1="295" x2="372" y2="305" stroke="#e8783c" stroke-width="1" stroke-linecap="round" stroke-opacity="0.7"/><line x1="444" y1="295" x2="444" y2="305" stroke="#e8783c" stroke-width="1" stroke-linecap="round" stroke-opacity="0.7"/><line x1="516" y1="295" x2="516" y2="305" stroke="#e8783c" stroke-width="1" stroke-linecap="round" stroke-opacity="0.7"/><rect x="44" y="252" width="200" height="96" rx="12" fill="url(#surface)" filter="url(#soft)"/><rect x="44" y="252" width="200" height="96" rx="12" fill="none" stroke="#30363d" stroke-width="1.5"/><rect x="50" y="264" width="4" height="72" rx="2" fill="#3a9ad9"/><path d="M238,252 L244,252 L244,258" fill="none" stroke="#8b949e" stroke-width="1" stroke-linecap="round" stroke-linejoin="round" stroke-opacity="0.5"/><path d="M44,342 L44,348 L50,348" fill="none" stroke="#8b949e" stroke-width="1" stroke-linecap="round" stroke-linejoin="round" stroke-opacity="0.5"/><rect x="58" y="262" width="26" height="15" rx="4" fill="#1b232c" stroke="#30363d" stroke-width="1"/><text x="71" y="272.5" font-family="ui-monospace, SFMono-Regular, 'SF Mono', Menlo, Consolas, 'Liberation Mono', monospace" font-size="10" font-weight="700" font-style="normal" fill="#c9d1d9" text-anchor="middle" text-rendering="geometricPrecision">U1</text><g transform="translate(58,286) scale(1.0000)" fill="none" stroke="#3a9ad9" stroke-width="2" stroke-linecap="round" stroke-linejoin="round"><path d="M9.5 5.2A3.2 3.2 0 0 0 4 7.6a3 3 0 0 0-1 5.6a3.2 3.2 0 0 0 4 3.6a2.6 2.6 0 0 0 2.5 1.6"/><path d="M14.5 5.2A3.2 3.2 0 0 1 20 7.6a3 3 0 0 1 1 5.6a3.2 3.2 0 0 1-4 3.6a2.6 2.6 0 0 1-2.5 1.6"/><path d="M12 5v13.4"/><circle cx="12" cy="5" r="0.5" fill="#3a9ad9" stroke="#3a9ad9"/><circle cx="7.5" cy="9" r="0.5" fill="#3a9ad9" stroke="#3a9ad9"/><circle cx="16.5" cy="9" r="0.5" fill="#3a9ad9" stroke="#3a9ad9"/><circle cx="8" cy="14" r="0.5" fill="#3a9ad9" stroke="#3a9ad9"/><circle cx="16" cy="14" r="0.5" fill="#3a9ad9" stroke="#3a9ad9"/><path d="M12 8.2 7.5 9M12 8.2 16.5 9M12 12.5 8 14M12 12.5 16 14"/></g><text x="90" y="300" font-family="-apple-system, BlinkMacSystemFont, 'Segoe UI', 'Noto Sans', Helvetica, Arial, sans-serif" font-size="14" font-weight="700" font-style="normal" fill="#e6edf3" text-anchor="start" text-rendering="geometricPrecision">NEST brain</text><text x="90" y="316" font-family="-apple-system, BlinkMacSystemFont, 'Segoe UI', 'Noto Sans', Helvetica, Arial, sans-serif" font-size="10.5" font-weight="500" font-style="normal" fill="#c9d1d9" text-anchor="start" text-rendering="geometricPrecision">the commander</text><text x="90" y="329" font-family="-apple-system, BlinkMacSystemFont, 'Segoe UI', 'Noto Sans', Helvetica, Arial, sans-serif" font-size="10.5" font-weight="500" font-style="normal" fill="#c9d1d9" text-anchor="start" text-rendering="geometricPrecision">point + rate neurons</text><rect x="616" y="252" width="200" height="96" rx="12" fill="url(#surface)" filter="url(#soft)"/><rect x="616" y="252" width="200" height="96" rx="12" fill="none" stroke="#30363d" stroke-width="1.5"/><rect x="622" y="264" width="4" height="72" rx="2" fill="#8b949e"/><path d="M810,252 L816,252 L816,258" fill="none" stroke="#8b949e" stroke-width="1" stroke-linecap="round" stroke-linejoin="round" stroke-opacity="0.5"/><path d="M616,342 L616,348 L622,348" fill="none" stroke="#8b949e" stroke-width="1" stroke-linecap="round" stroke-linejoin="round" stroke-opacity="0.5"/><rect x="630" y="262" width="26" height="15" rx="4" fill="#1b232c" stroke="#30363d" stroke-width="1"/><text x="643" y="272.5" font-family="ui-monospace, SFMono-Regular, 'SF Mono', Menlo, Consolas, 'Liberation Mono', monospace" font-size="10" font-weight="700" font-style="normal" fill="#c9d1d9" text-anchor="middle" text-rendering="geometricPrecision">U2</text><g transform="translate(630,286) scale(1.0000)" fill="none" stroke="#8b949e" stroke-width="2" stroke-linecap="round" stroke-linejoin="round"><rect x="5" y="8" width="14" height="11" rx="3"/><path d="M12 8V5"/><circle cx="12" cy="3.6" r="1.4" fill="#8b949e" stroke="none"/><circle cx="9" cy="12.5" r="1.2" fill="#8b949e" stroke="none"/><circle cx="15" cy="12.5" r="1.2" fill="#8b949e" stroke="none"/><path d="M9.5 16h5"/><path d="M5 12.5H3M19 12.5h2"/></g><text x="662" y="300" font-family="-apple-system, BlinkMacSystemFont, 'Segoe UI', 'Noto Sans', Helvetica, Arial, sans-serif" font-size="14" font-weight="700" font-style="normal" fill="#e6edf3" text-anchor="start" text-rendering="geometricPrecision">robot / UAV body</text><text x="662" y="316" font-family="-apple-system, BlinkMacSystemFont, 'Segoe UI', 'Noto Sans', Helvetica, Arial, sans-serif" font-size="10.5" font-weight="500" font-style="normal" fill="#c9d1d9" text-anchor="start" text-rendering="geometricPrecision">the plant</text><text x="662" y="329" font-family="-apple-system, BlinkMacSystemFont, 'Segoe UI', 'Noto Sans', Helvetica, Arial, sans-serif" font-size="10.5" font-weight="500" font-style="normal" fill="#c9d1d9" text-anchor="start" text-rendering="geometricPrecision">example: crebain</text><rect x="298" y="466" width="264" height="76" rx="12" fill="url(#surface)" filter="url(#soft)"/><rect x="298" y="466" width="264" height="76" rx="12" fill="none" stroke="#8b949e" stroke-width="1.5" stroke-dasharray="5 4" fill-opacity="0.7"/><rect x="304" y="478" width="4" height="52" rx="2" fill="#8b949e"/><path d="M556,466 L562,466 L562,472" fill="none" stroke="#8b949e" stroke-width="1" stroke-linecap="round" stroke-linejoin="round" stroke-opacity="0.5"/><path d="M298,536 L298,542 L304,542" fill="none" stroke="#8b949e" stroke-width="1" stroke-linecap="round" stroke-linejoin="round" stroke-opacity="0.5"/><rect x="312" y="476" width="26" height="15" rx="4" fill="#1b232c" stroke="#30363d" stroke-width="1"/><text x="325" y="486.5" font-family="ui-monospace, SFMono-Regular, 'SF Mono', Menlo, Consolas, 'Liberation Mono', monospace" font-size="10" font-weight="700" font-style="normal" fill="#c9d1d9" text-anchor="middle" text-rendering="geometricPrecision">O1</text><g transform="translate(312,494) scale(0.9167)" fill="none" stroke="#8b949e" stroke-width="2" stroke-linecap="round" stroke-linejoin="round"><path d="M2.5 12c2.2-4 6-6 9.5-6s7.3 2 9.5 6c-2.2 4-6 6-9.5 6s-7.3-2-9.5-6Z"/><circle cx="12" cy="12" r="3"/></g><text x="342" y="500" font-family="-apple-system, BlinkMacSystemFont, 'Segoe UI', 'Noto Sans', Helvetica, Arial, sans-serif" font-size="14" font-weight="700" font-style="normal" fill="#e6edf3" text-anchor="start" text-rendering="geometricPrecision">analysis / observer client</text><text x="342" y="515" font-family="-apple-system, BlinkMacSystemFont, 'Segoe UI', 'Noto Sans', Helvetica, Arial, sans-serif" font-size="10.5" font-weight="500" font-style="normal" fill="#c9d1d9" text-anchor="start" text-rendering="geometricPrecision">attaches for free · read-only tap</text><rect x="294.5" y="151.5" width="271" height="33" rx="9" fill="#0d1117"/><rect x="296.0" y="153.0" width="268" height="30" rx="8" fill="#1b232c" stroke="#30363d" stroke-width="1"/><rect x="302.0" y="160.0" width="16" height="16" rx="3" fill="#3a9ad9"/><text x="310.0" y="171.5" font-family="ui-monospace, SFMono-Regular, 'SF Mono', Menlo, Consolas, 'Liberation Mono', monospace" font-size="9" font-weight="700" font-style="normal" fill="#fff" text-anchor="middle" text-rendering="geometricPrecision">C1</text><text x="324.0" y="166.0" font-family="-apple-system, BlinkMacSystemFont, 'Segoe UI', 'Noto Sans', Helvetica, Arial, sans-serif" font-size="10.5" font-weight="700" font-style="normal" fill="#3a9ad9" text-anchor="start" letter-spacing="1.0" text-rendering="geometricPrecision">CONTROL</text><text x="324.0" y="178.0" font-family="ui-monospace, SFMono-Regular, 'SF Mono', Menlo, Consolas, 'Liberation Mono', monospace" font-size="9.5" font-weight="500" font-style="normal" fill="#8b949e" text-anchor="start" text-rendering="geometricPrecision">{realm}/rpc</text><text x="387.0" y="166.0" font-family="-apple-system, BlinkMacSystemFont, 'Segoe UI', 'Noto Sans', Helvetica, Arial, sans-serif" font-size="9.5" font-weight="500" font-style="normal" fill="#c9d1d9" text-anchor="start" text-rendering="geometricPrecision">reliable · request/reply · queryable</text><rect x="294.5" y="193.5" width="271" height="33" rx="9" fill="#0d1117"/><rect x="296.0" y="195.0" width="268" height="30" rx="8" fill="#1b232c" stroke="#30363d" stroke-width="1"/><rect x="302.0" y="202.0" width="16" height="16" rx="3" fill="#56b4e9"/><text x="310.0" y="213.5" font-family="ui-monospace, SFMono-Regular, 'SF Mono', Menlo, Consolas, 'Liberation Mono', monospace" font-size="9" font-weight="700" font-style="normal" fill="#fff" text-anchor="middle" text-rendering="geometricPrecision">P1</text><text x="324.0" y="208.0" font-family="-apple-system, BlinkMacSystemFont, 'Segoe UI', 'Noto Sans', Helvetica, Arial, sans-serif" font-size="10.5" font-weight="700" font-style="normal" fill="#56b4e9" text-anchor="start" letter-spacing="1.0" text-rendering="geometricPrecision">PERCEPTION</text><text x="324.0" y="220.0" font-family="ui-monospace, SFMono-Regular, 'SF Mono', Menlo, Consolas, 'Liberation Mono', monospace" font-size="9.5" font-weight="500" font-style="normal" fill="#8b949e" text-anchor="start" text-rendering="geometricPrecision">{realm}/session/{id}/sensor[/{name}]</text><text x="408.0" y="208.0" font-family="-apple-system, BlinkMacSystemFont, 'Segoe UI', 'Noto Sans', Helvetica, Arial, sans-serif" font-size="9.5" font-weight="500" font-style="normal" fill="#c9d1d9" text-anchor="start" text-rendering="geometricPrecision">best-effort · DROP · lossy-OK</text><rect x="303.5" y="425.5" width="253" height="33" rx="9" fill="#0d1117"/><rect x="305.0" y="427.0" width="250" height="30" rx="8" fill="#1b232c" stroke="#30363d" stroke-width="1"/><rect x="311.0" y="434.0" width="16" height="16" rx="3" fill="#8b949e"/><text x="319.0" y="445.5" font-family="ui-monospace, SFMono-Regular, 'SF Mono', Menlo, Consolas, 'Liberation Mono', monospace" font-size="9" font-weight="700" font-style="normal" fill="#fff" text-anchor="middle" text-rendering="geometricPrecision">O1</text><text x="333.0" y="440.0" font-family="-apple-system, BlinkMacSystemFont, 'Segoe UI', 'Noto Sans', Helvetica, Arial, sans-serif" font-size="10.5" font-weight="700" font-style="normal" fill="#8b949e" text-anchor="start" letter-spacing="1.0" text-rendering="geometricPrecision">OBSERVATION</text><text x="333.0" y="452.0" font-family="ui-monospace, SFMono-Regular, 'SF Mono', Menlo, Consolas, 'Liberation Mono', monospace" font-size="9.5" font-weight="500" font-style="normal" fill="#8b949e" text-anchor="start" text-rendering="geometricPrecision">{realm}/session/{id}/observation</text><text x="424.0" y="440.0" font-family="-apple-system, BlinkMacSystemFont, 'Segoe UI', 'Noto Sans', Helvetica, Arial, sans-serif" font-size="9.5" font-weight="500" font-style="normal" fill="#c9d1d9" text-anchor="start" text-rendering="geometricPrecision">read-only tap</text><line x1="430" y1="300" x2="430" y2="326" stroke="#e8783c" stroke-width="2" stroke-linecap="round"/><rect x="262" y="326" width="336" height="96" rx="10" fill="url(#surface)" stroke="#e8783c" stroke-width="1.5" filter="url(#glow)"/><rect x="262" y="326" width="336" height="96" rx="10" fill="#e8783c" fill-opacity="0.06"/><rect x="276" y="339" width="20" height="20" rx="4" fill="#e8783c"/><text x="286" y="353" font-family="ui-monospace, SFMono-Regular, 'SF Mono', Menlo, Consolas, 'Liberation Mono', monospace" font-size="10" font-weight="700" font-style="normal" fill="#ffffff" text-anchor="middle" text-rendering="geometricPrecision">A1</text><text x="304" y="353" font-family="-apple-system, BlinkMacSystemFont, 'Segoe UI', 'Noto Sans', Helvetica, Arial, sans-serif" font-size="12" font-weight="700" font-style="normal" fill="#e8783c" text-anchor="start" letter-spacing="1.6" text-rendering="geometricPrecision">ACTION</text><text x="582" y="353" font-family="-apple-system, BlinkMacSystemFont, 'Segoe UI', 'Noto Sans', Helvetica, Arial, sans-serif" font-size="9" font-weight="600" font-style="normal" fill="#e8783c" fill-opacity="0.95" text-anchor="end" text-rendering="geometricPrecision">express · RealTime · safety-gated</text><text x="276" y="372" font-family="ui-monospace, SFMono-Regular, 'SF Mono', Menlo, Consolas, 'Liberation Mono', monospace" font-size="9.5" font-weight="500" font-style="normal" fill="#8b949e" text-anchor="start" text-rendering="geometricPrecision">{realm}/session/{id}/command[/{name}]</text><text x="276" y="395" font-family="ui-monospace, SFMono-Regular, 'SF Mono', Menlo, Consolas, 'Liberation Mono', monospace" font-size="9" font-weight="600" font-style="normal" fill="#8b949e" text-anchor="start" text-rendering="geometricPrecision">mode</text><rect x="312" y="382" width="35.6" height="19" rx="6" fill="#1b232c" stroke="#30363d" stroke-width="1"/><text x="329.8" y="395" font-family="ui-monospace, SFMono-Regular, 'SF Mono', Menlo, Consolas, 'Liberation Mono', monospace" font-size="9" font-weight="700" font-style="normal" fill="#c9d1d9" text-anchor="middle" text-rendering="geometricPrecision">init</text><rect x="354.6" y="382" width="48.400000000000006" height="19" rx="6" fill="#33c295"/><text x="378.8" y="395" font-family="ui-monospace, SFMono-Regular, 'SF Mono', Menlo, Consolas, 'Liberation Mono', monospace" font-size="9" font-weight="700" font-style="normal" fill="#06281e" text-anchor="middle" text-rendering="geometricPrecision">active</text><rect x="410.0" y="382" width="35.6" height="19" rx="6" fill="none" stroke="#f0b429" stroke-width="1.3"/><text x="427.8" y="395" font-family="ui-monospace, SFMono-Regular, 'SF Mono', Menlo, Consolas, 'Liberation Mono', monospace" font-size="9" font-weight="700" font-style="normal" fill="#f0b429" text-anchor="middle" text-rendering="geometricPrecision">hold</text><rect x="452.6" y="382" width="42.0" height="19" rx="6" fill="#e8783c"/><text x="473.6" y="395" font-family="ui-monospace, SFMono-Regular, 'SF Mono', Menlo, Consolas, 'Liberation Mono', monospace" font-size="9" font-weight="700" font-style="normal" fill="#ffffff" text-anchor="middle" text-rendering="geometricPrecision">estop</text><text x="505.6" y="395" font-family="ui-monospace, SFMono-Regular, 'SF Mono', Menlo, Consolas, 'Liberation Mono', monospace" font-size="9" font-weight="600" font-style="normal" fill="#f0b429" text-anchor="start" text-rendering="geometricPrecision">· ttl_ms</text><text x="276" y="412" font-family="-apple-system, BlinkMacSystemFont, 'Segoe UI', 'Noto Sans', Helvetica, Arial, sans-serif" font-size="8.5" font-weight="500" font-style="italic" fill="#8b949e" text-anchor="start" letter-spacing="0.2" text-rendering="geometricPrecision">mode = explicit wire authority · HOLD/ESTOP fail-safe to zero</text><rect x="28" y="568" width="804" height="28" rx="8" fill="#1b232c" stroke="#30363d" stroke-width="1"/><text x="48" y="586" font-family="ui-monospace, SFMono-Regular, 'SF Mono', Menlo, Consolas, 'Liberation Mono', monospace" font-size="10" font-weight="700" font-style="normal" fill="#e8783c" text-anchor="start" text-rendering="geometricPrecision">A1</text><line x1="70" y1="582" x2="92" y2="582" stroke="#e8783c" stroke-width="4" stroke-linecap="round"/><text x="100" y="586" font-family="-apple-system, BlinkMacSystemFont, 'Segoe UI', 'Noto Sans', Helvetica, Arial, sans-serif" font-size="10.5" font-weight="700" font-style="normal" fill="#e8783c" text-anchor="start" letter-spacing="0.6" text-rendering="geometricPrecision">ACTION</text><text x="152.4" y="586" font-family="-apple-system, BlinkMacSystemFont, 'Segoe UI', 'Noto Sans', Helvetica, Arial, sans-serif" font-size="9.5" font-weight="500" font-style="normal" fill="#8b949e" text-anchor="start" text-rendering="geometricPrecision">heaviest · safety-gated</text><text x="248" y="586" font-family="ui-monospace, SFMono-Regular, 'SF Mono', Menlo, Consolas, 'Liberation Mono', monospace" font-size="10" font-weight="700" font-style="normal" fill="#3a9ad9" text-anchor="start" text-rendering="geometricPrecision">C1</text><line x1="270" y1="582" x2="292" y2="582" stroke="#3a9ad9" stroke-width="2.5" stroke-linecap="round"/><text x="300" y="586" font-family="-apple-system, BlinkMacSystemFont, 'Segoe UI', 'Noto Sans', Helvetica, Arial, sans-serif" font-size="10.5" font-weight="700" font-style="normal" fill="#3a9ad9" text-anchor="start" letter-spacing="0.6" text-rendering="geometricPrecision">CONTROL</text><text x="359.8" y="586" font-family="-apple-system, BlinkMacSystemFont, 'Segoe UI', 'Noto Sans', Helvetica, Arial, sans-serif" font-size="9.5" font-weight="500" font-style="normal" fill="#8b949e" text-anchor="start" text-rendering="geometricPrecision">reliable · queryable</text><text x="448" y="586" font-family="ui-monospace, SFMono-Regular, 'SF Mono', Menlo, Consolas, 'Liberation Mono', monospace" font-size="10" font-weight="700" font-style="normal" fill="#56b4e9" text-anchor="start" text-rendering="geometricPrecision">P1</text><line x1="470" y1="582" x2="492" y2="582" stroke="#56b4e9" stroke-width="2.5" stroke-linecap="round" stroke-dasharray="6 4"/><text x="500" y="586" font-family="-apple-system, BlinkMacSystemFont, 'Segoe UI', 'Noto Sans', Helvetica, Arial, sans-serif" font-size="10.5" font-weight="700" font-style="normal" fill="#56b4e9" text-anchor="start" letter-spacing="0.6" text-rendering="geometricPrecision">PERCEPTION</text><text x="582.0" y="586" font-family="-apple-system, BlinkMacSystemFont, 'Segoe UI', 'Noto Sans', Helvetica, Arial, sans-serif" font-size="9.5" font-weight="500" font-style="normal" fill="#8b949e" text-anchor="start" text-rendering="geometricPrecision">best-effort</text><text x="648" y="586" font-family="ui-monospace, SFMono-Regular, 'SF Mono', Menlo, Consolas, 'Liberation Mono', monospace" font-size="10" font-weight="700" font-style="normal" fill="#8b949e" text-anchor="start" text-rendering="geometricPrecision">O1</text><line x1="670" y1="582" x2="692" y2="582" stroke="#8b949e" stroke-width="1.5" stroke-linecap="round" stroke-dasharray="3 3"/><text x="700" y="586" font-family="-apple-system, BlinkMacSystemFont, 'Segoe UI', 'Noto Sans', Helvetica, Arial, sans-serif" font-size="10.5" font-weight="700" font-style="normal" fill="#8b949e" text-anchor="start" letter-spacing="0.6" text-rendering="geometricPrecision">OBSERVATION</text><text x="789.4" y="586" font-family="-apple-system, BlinkMacSystemFont, 'Segoe UI', 'Noto Sans', Helvetica, Arial, sans-serif" font-size="9.5" font-weight="500" font-style="normal" fill="#8b949e" text-anchor="start" text-rendering="geometricPrecision">read-only tap</text></svg>